<?xml version="1.0" standalone="no"?>
<!DOCTYPE svg PUBLIC "-//W3C//DTD SVG 1.1//EN" "http://www.w3.org/Graphics/SVG/1.1/DTD/svg11.dtd" >
<svg xmlns="http://www.w3.org/2000/svg" xmlns:xlink="http://www.w3.org/1999/xlink" version="1.1">
<metadata>
Created by FontForge 20170731 at Thu Oct  8 19:31:00 2020
 By Aleksey,,,
Copyright (c) 2009 by The Entente (AS &#38; EH). All rights reserved. wf-rip
</metadata>
<defs>
<font id="Apercu" horiz-adv-x="1146" >
  <font-face 
    font-family="Apercu"
    font-weight="400"
    font-stretch="normal"
    units-per-em="2048"
    panose-1="2 0 5 6 4 0 0 2 0 4"
    ascent="1638"
    descent="-410"
    x-height="1032"
    cap-height="1434"
    bbox="-174 -481 2458 1944"
    underline-thickness="102"
    underline-position="-307"
    unicode-range="U+0020-FB02"
  />
<missing-glyph horiz-adv-x="1271" 
d="M1073 0h-874v1434h874v-1434zM901 156v1122h-530v-1122h530z" />
    <glyph glyph-name="uniFB01" unicode="fi" horiz-adv-x="1114" 
d="M244 877h-148v155h148v33q0 183 114 285q112 100 285 100q169 0 264 -68l-37 -147q-100 59 -229 59q-107 0 -166 -58t-59 -169v-35h526v-1032h-172v877h-354v-877h-172v877z" />
    <glyph glyph-name="uniFB02" unicode="fl" horiz-adv-x="1206" 
d="M244 877h-148v155h148v53q0 181 106 271q107 94 273 94h411v-1450h-172v1294h-241q-94 0 -149.5 -54.5t-55.5 -152.5v-55h237v-155h-237v-877h-172v877z" />
    <glyph glyph-name=".notdef" horiz-adv-x="1271" 
d="M1073 0h-874v1434h874v-1434zM901 156v1122h-530v-1122h530z" />
    <glyph glyph-name=".null" horiz-adv-x="0" 
 />
    <glyph glyph-name="nonmarkingreturn" horiz-adv-x="682" 
 />
    <glyph glyph-name="space" unicode=" " horiz-adv-x="548" 
 />
    <glyph glyph-name="exclam" unicode="!" horiz-adv-x="706" 
d="M291 410l-49 1024h233l-49 -1024h-135zM215 133q0 62 41 104t102 42t102.5 -42t41.5 -104q0 -60 -41 -99.5t-103 -39.5t-102.5 39.5t-40.5 99.5z" />
    <glyph glyph-name="quotedbl" unicode="&#x22;" horiz-adv-x="903" 
d="M358 975h-127l-51 475h230zM672 975h-127l-51 475h229z" />
    <glyph glyph-name="numbersign" unicode="#" horiz-adv-x="1478" 
d="M475 868h-246v140h275l88 426h149l-88 -426h291l86 426h150l-86 -426h237v-140h-266l-61 -303h245v-139h-274l-88 -426h-150l88 426h-290l-86 -426h-150l86 426h-238v139h267zM915 868h-290l-62 -303h291z" />
    <glyph glyph-name="dollar" unicode="$" horiz-adv-x="1071" 
d="M901 1221l-145 -95q-48 85 -101 119.5t-127 34.5q-72 0 -122 -53.5t-50 -126.5q0 -52 19 -91t65 -75q58 -41 82 -53l111 -58q116 -58 188 -112q75 -56 112.5 -125.5t41.5 -173.5q0 -173 -111 -293q-95 -106 -237 -127v-176h-164v174q-145 25 -247.5 128t-133.5 253
l156 94q44 -155 114.5 -232t192.5 -77q124 0 194 82q56 68 56 170q0 88 -65 149.5t-206 128.5q-84 38 -134.5 69t-106.5 79q-107 95 -107 251q0 135 81 234.5t206 124.5v174h164v-176q180 -35 274 -221z" />
    <glyph glyph-name="percent" unicode="%" horiz-adv-x="1724" 
d="M213 889q-94 94 -94 233q0 138 94 232q96 96 233 96q138 0 234 -96q94 -94 94 -232q0 -139 -94 -233t-234 -94q-139 0 -233 94zM315 1253q-47 -53 -47 -131q0 -80 47 -133q48 -51 131 -51q84 0 129 51q50 53 50 133q0 78 -50 131q-48 54 -129 54q-80 0 -131 -54zM1044 78
q-94 94 -94 233q0 138 94 232q96 96 234 96q137 0 233 -96q95 -95 95 -232q0 -138 -95 -233q-94 -94 -233 -94q-140 0 -234 94zM1147 442q-47 -53 -47 -131q0 -80 47 -133q48 -51 131 -51q84 0 129 51q49 52 49 133q0 79 -49 131q-48 54 -129 54q-80 0 -131 -54zM258 23
l1102 1470l102 -80l-1102 -1472z" />
    <glyph glyph-name="ampersand" unicode="&#x26;" horiz-adv-x="1386" 
d="M586 -16q-198 0 -315 114.5t-117 311.5q0 149 79 262q84 116 197 174q-125 168 -125 299q0 132 90 219q92 86 228 86q146 0 232.5 -81t86.5 -206q0 -88 -51 -174q-58 -98 -227 -186l299 -379q37 76 96 244l115 -125q-55 -153 -107 -252l229 -291h-206l-121 152
q-146 -168 -383 -168zM586 143q175 0 284 133l-352 453q-196 -111 -196 -323q0 -120 75.5 -191.5t188.5 -71.5zM469 1137q0 -95 100 -224q108 54 159.5 109.5t51.5 130.5q0 64 -44.5 107t-112.5 43t-111 -46.5t-43 -119.5z" />
    <glyph glyph-name="quotesingle" unicode="'" horiz-adv-x="589" 
d="M358 975h-127l-51 475h230z" />
    <glyph glyph-name="parenleft" unicode="(" horiz-adv-x="598" 
d="M365 1536h172q-215 -341 -215 -819t215 -819h-172q-220 347 -220 819t220 819z" />
    <glyph glyph-name="parenright" unicode=")" horiz-adv-x="598" 
d="M61 1536h172q220 -347 220 -819t-220 -819h-172q215 341 215 819t-215 819z" />
    <glyph glyph-name="asterisk" unicode="*" horiz-adv-x="999" 
d="M430 1450h139v-283l269 88l43 -133l-267 -88l164 -227l-112 -80l-166 227l-166 -227l-113 80l164 227l-266 88l43 133l268 -88v283z" />
    <glyph glyph-name="plus" unicode="+" horiz-adv-x="1163" 
d="M508 729v375h151v-375h375v-151h-375v-375h-151v375h-375v151h375z" />
    <glyph glyph-name="comma" unicode="," horiz-adv-x="651" 
d="M270 -219h-131l135 444h234z" />
    <glyph glyph-name="hyphen" unicode="-" horiz-adv-x="985" 
d="M840 573h-695v152h695v-152z" />
    <glyph glyph-name="period" unicode="." horiz-adv-x="626" 
d="M184 121q0 54 37 91.5t92 37.5q54 0 91.5 -37.5t37.5 -91.5q0 -55 -37.5 -92t-91.5 -37q-55 0 -92 37t-37 92z" />
    <glyph glyph-name="slash" unicode="/" horiz-adv-x="1112" 
d="M39 -102l893 1638h172l-893 -1638h-172z" />
    <glyph glyph-name="zero" unicode="0" horiz-adv-x="1277" 
d="M264 1253q129 197 375 197t375 -197q129 -193 129 -536t-129 -539q-129 -194 -375 -194t-375 194q-129 196 -129 539t129 536zM881 1137q-82 149 -242 149t-242 -149t-82 -420t82 -420q83 -150 242 -150t242 150q82 149 82 420t-82 420z" />
    <glyph glyph-name="one" unicode="1" horiz-adv-x="770" 
d="M152 1210l368 224h64v-1434h-168v1176l-264 -154v188z" />
    <glyph glyph-name="two" unicode="2" horiz-adv-x="1167" 
d="M1014 0h-867v80l547 700q67 85 92 144.5t25 128.5q0 99 -53 164q-57 69 -172 69q-99 0 -162 -67t-74 -179l-172 33q9 158 125 268q118 109 283 109q201 0 311 -125q90 -104 90 -272q0 -161 -115 -312l-446 -577h588v-164z" />
    <glyph glyph-name="three" unicode="3" horiz-adv-x="1183" 
d="M125 393l172 23q41 -269 285 -269q130 0 208 81.5t78 222.5t-78 222t-208 81q-72 0 -127 -27l-72 96l328 447h-518v164h778v-56l-365 -493q18 6 58 6q164 0 272 -123q108 -120 108 -317q0 -206 -129 -338q-129 -129 -333 -129q-183 0 -310 112q-129 114 -147 297z" />
    <glyph glyph-name="four" unicode="4" horiz-adv-x="1220" 
d="M930 0h-176v305h-623v72l606 1057h193v-965h178v-164h-178v-305zM754 1163l-389 -694h389v694z" />
    <glyph glyph-name="five" unicode="5" horiz-adv-x="1185" 
d="M160 375l174 33q13 -126 81.5 -193.5t178.5 -67.5q128 0 201 86.5t73 233.5t-73 233t-201 86q-169 0 -289 -159l-108 24l77 783h684v-164h-534l-53 -416q93 96 235 96q205 0 322 -135q116 -131 116 -348q0 -216 -122 -350q-124 -133 -328 -133q-182 0 -298 102t-136 289z
" />
    <glyph glyph-name="six" unicode="6" horiz-adv-x="1181" 
d="M608 918q197 0 324 -136q129 -132 129 -331t-129 -334q-127 -133 -324 -133q-195 0 -325 133q-127 136 -127 334q0 139 73 264l424 735h197l-311 -547q30 15 69 15zM336 451q0 -131 77 -217.5t195 -86.5t195.5 86.5t77.5 217.5q0 136 -75.5 219.5t-197.5 83.5t-197 -83.5
t-75 -219.5z" />
    <glyph glyph-name="seven" unicode="7" horiz-adv-x="987" 
d="M930 1358l-557 -1358h-180l526 1270h-606v164h817v-76z" />
    <glyph glyph-name="eight" unicode="8" horiz-adv-x="1196" 
d="M991 1067q0 -92 -45 -174.5t-117 -120.5q100 -45 156.5 -139t56.5 -221q0 -197 -129 -314q-129 -114 -315 -114t-315 114q-129 117 -129 314q0 127 56.5 221t156.5 139q-72 38 -117 120.5t-45 174.5q0 162 110 272q111 111 283 111t283 -111q110 -110 110 -272zM788 604
q-75 72 -190 72t-190 -72q-74 -71 -74 -192q0 -122 74 -193q75 -72 190 -72t190 72q74 71 74 193q0 121 -74 192zM758 1231q-57 63 -160 63q-102 0 -162 -63q-59 -65 -59 -164t59 -164q60 -63 162 -63q103 0 160 63q61 64 61 164t-61 164z" />
    <glyph glyph-name="nine" unicode="9" horiz-adv-x="1181" 
d="M608 516q-195 0 -325 133q-127 136 -127 334q0 199 127 332q129 135 325 135q198 0 324 -135q129 -132 129 -332q0 -137 -74 -264l-424 -735h-196l311 546q-28 -14 -70 -14zM881 983q0 131 -77.5 217t-195.5 86t-195 -86t-77 -217q0 -136 75 -219.5t197 -83.5t197.5 83.5
t75.5 219.5z" />
    <glyph glyph-name="colon" unicode=":" horiz-adv-x="626" 
d="M184 121q0 54 37 91.5t92 37.5q54 0 91.5 -37.5t37.5 -91.5q0 -55 -37.5 -92t-91.5 -37q-55 0 -92 37t-37 92zM184 825q0 54 37 91.5t92 37.5q54 0 91.5 -37.5t37.5 -91.5q0 -55 -37.5 -92t-91.5 -37q-55 0 -92 37t-37 92z" />
    <glyph glyph-name="semicolon" unicode=";" horiz-adv-x="626" 
d="M180 825q0 54 37 91.5t92 37.5q54 0 91.5 -37.5t37.5 -91.5q0 -55 -37.5 -92t-91.5 -37q-55 0 -92 37t-37 92zM205 -219h-131l135 444h233z" />
    <glyph glyph-name="less" unicode="&#x3c;" horiz-adv-x="931" 
d="M817 166l-715 379v180l715 379v-176l-547 -293l547 -293v-176z" />
    <glyph glyph-name="equal" unicode="=" horiz-adv-x="1226" 
d="M1022 729h-817v152h817v-152zM1022 389h-817v152h817v-152z" />
    <glyph glyph-name="greater" unicode="&#x3e;" horiz-adv-x="931" 
d="M115 1104l714 -379v-180l-714 -379v176l547 293l-547 293v176z" />
    <glyph glyph-name="question" unicode="?" horiz-adv-x="917" 
d="M334 129q0 60 39 99.5t96 39.5q60 0 99.5 -39.5t39.5 -99.5q0 -57 -39.5 -96t-99.5 -39q-57 0 -96 39t-39 96zM610 676l133 -47q-73 -217 -274 -217q-123 0 -196.5 69t-73.5 187q0 170 174 258q32 18 101 46t87 38q90 50 90 145q0 68 -45 107q-51 45 -133 45
q-78 0 -134 -51.5t-81 -139.5l-160 27q31 144 128 225.5t247 81.5q158 0 254 -90q92 -86 92 -215q0 -168 -155 -244l-207 -100q-101 -55 -101 -142q0 -49 28.5 -76.5t78.5 -27.5q94 0 147 121z" />
    <glyph glyph-name="at" unicode="@" horiz-adv-x="1884" 
d="M1186 940l20 102h135l-47 -516q-1 -11 -2 -22.5t-1.5 -17t-0.5 -7.5q0 -106 96 -106q179 0 179 348q0 602 -590 602q-99 0 -191.5 -28t-173.5 -87t-141.5 -142t-95.5 -200.5t-35 -255.5q0 -305 188 -481q186 -174 447 -174q132 0 244 25q114 25 256 100l57 -137
q-186 -84 -281 -107q-119 -29 -276 -29q-347 0 -580 222q-227 224 -227 587q0 390 240 621q242 233 579 233q350 0 549 -196q203 -194 203 -553q0 -242 -97.5 -371t-261.5 -129q-77 0 -138 39.5t-91 101.5q-91 -141 -268 -141q-164 0 -258.5 106t-94.5 277q0 188 117 320
q121 133 313 133q160 0 228 -117zM944 905q-117 0 -182.5 -84t-65.5 -223q0 -107 51.5 -166t147.5 -59q114 0 182 87t68 220q0 225 -201 225z" />
    <glyph glyph-name="A" unicode="A" horiz-adv-x="1212" 
d="M25 0l495 1434h172l496 -1434h-180l-127 383h-549l-127 -383h-180zM823 555l-217 645l-217 -645h434z" />
    <glyph glyph-name="B" unicode="B" horiz-adv-x="1265" 
d="M199 0v1434h483q189 0 296 -98t107 -271q0 -91 -44 -166.5t-117 -114.5q107 -43 169 -137t62 -221q0 -198 -118.5 -312t-327.5 -114h-510zM682 678h-303v-506h303q287 0 287 254q0 252 -287 252zM672 1262h-293v-412h293q106 0 166.5 53.5t60.5 151.5q0 99 -60.5 153
t-166.5 54z" />
    <glyph glyph-name="C" unicode="C" horiz-adv-x="1409" 
d="M1147 469l174 -51q-50 -196 -197 -316q-145 -118 -364 -118q-270 0 -459 192q-188 194 -188 541q0 346 188 540q190 193 459 193q216 0 364 -121t197 -313l-174 -51q-102 313 -387 313q-204 0 -334 -145q-127 -145 -127 -416t127 -416q130 -145 334 -145q285 0 387 313z
" />
    <glyph glyph-name="D" unicode="D" horiz-adv-x="1363" 
d="M199 0v1434h393q279 0 469 -193q190 -190 190 -524t-190 -527q-190 -190 -469 -190h-393zM561 1262h-182v-1090h182q82 0 153.5 18t135.5 59t110 102.5t72.5 155t26.5 210.5t-26.5 210.5t-72.5 155t-110 102.5t-135.5 59t-153.5 18z" />
    <glyph glyph-name="E" unicode="E" horiz-adv-x="1159" 
d="M199 0v1434h823v-172h-643v-412h520v-172h-520v-506h663v-172h-843z" />
    <glyph glyph-name="F" unicode="F" horiz-adv-x="1101" 
d="M199 0v1434h833v-172h-653v-428h530v-172h-530v-662h-180z" />
    <glyph glyph-name="G" unicode="G" horiz-adv-x="1462" 
d="M1155 551h-309v172h481v-723h-153l-19 197q-56 -97 -161.5 -155t-241.5 -58q-266 0 -453 190q-186 189 -186 543q0 352 188 543q187 190 459 190q219 0 366 -115.5t197 -318.5l-174 -51q-102 313 -389 313q-204 0 -334 -145q-127 -145 -127 -416t127 -416
q130 -145 334 -145q177 0 280 106.5t115 288.5z" />
    <glyph glyph-name="H" unicode="H" horiz-adv-x="1413" 
d="M1034 848v586h180v-1434h-180v676h-655v-676h-180v1434h180v-586h655z" />
    <glyph glyph-name="I" unicode="I" horiz-adv-x="577" 
d="M199 0v1434h180v-1434h-180z" />
    <glyph glyph-name="J" unicode="J" horiz-adv-x="1042" 
d="M694 449v985h180v-994q0 -218 -118 -336q-117 -120 -299 -120q-179 0 -291 103t-143 271l182 39q52 -241 252 -241q237 0 237 293z" />
    <glyph glyph-name="K" unicode="K" horiz-adv-x="1222" 
d="M561 791l631 -791h-229l-584 723v-723h-180v1434h180v-576l534 576h230z" />
    <glyph glyph-name="L" unicode="L" horiz-adv-x="1067" 
d="M199 0v1434h180v-1262h651v-172h-831z" />
    <glyph glyph-name="M" unicode="M" horiz-adv-x="1605" 
d="M199 0v1434h221l383 -1010l383 1010h221v-1434h-180v1044l-361 -913h-127l-360 913v-1044h-180z" />
    <glyph glyph-name="N" unicode="N" horiz-adv-x="1435" 
d="M1057 313v1121h180v-1434h-211l-647 1116v-1116h-180v1434h211z" />
    <glyph glyph-name="O" unicode="O" horiz-adv-x="1511" 
d="M299 1253q188 197 457 197q268 0 456 -197q187 -193 187 -536t-187 -539q-188 -194 -456 -194q-269 0 -457 194q-186 195 -186 539t186 536zM1083 1133q-127 145 -327 145t-330 -145q-127 -145 -127 -416t127 -416q130 -145 330 -145t327 145q129 144 129 416t-129 416z
" />
    <glyph glyph-name="P" unicode="P" horiz-adv-x="1196" 
d="M698 614h-319v-614h-180v1434h499q200 0 313 -110t113 -300t-113 -300t-313 -110zM379 786h330q110 0 169.5 61.5t59.5 176.5t-59.5 176.5t-169.5 61.5h-330v-476z" />
    <glyph glyph-name="Q" unicode="Q" horiz-adv-x="1511" 
d="M1399 717q0 -271 -129 -465l139 -137l-131 -131l-133 133q-171 -133 -389 -133q-269 0 -457 194q-186 195 -186 539t186 536q188 197 457 197q268 0 456 -197q187 -193 187 -536zM1020 240l-168 170l131 131l156 -158q73 134 73 334q0 272 -129 416q-127 145 -327 145
t-330 -145q-127 -145 -127 -416t127 -416q130 -145 330 -145q154 0 264 84z" />
    <glyph glyph-name="R" unicode="R" horiz-adv-x="1312" 
d="M1227 0h-213l-420 676h-215v-676h-180v1434h477q194 0 308 -101t114 -278q0 -147 -78.5 -242.5t-220.5 -124.5zM680 1262h-301v-414h301q231 0 231 207t-231 207z" />
    <glyph glyph-name="S" unicode="S" horiz-adv-x="1071" 
d="M901 1221l-145 -95q-48 85 -100.5 118.5t-127.5 33.5q-73 0 -122.5 -52.5t-49.5 -125.5q0 -52 19 -91t65 -75q58 -41 82 -53l111 -58q116 -58 188 -112q75 -56 112.5 -125.5t41.5 -173.5q0 -173 -111 -293q-123 -135 -319 -135q-175 0 -301 108q-124 106 -162 279l156 94
q44 -155 114.5 -232t192.5 -77q124 0 194 82q56 68 56 170q0 88 -65 149.5t-206 128.5q-84 38 -134.5 69t-106.5 79q-107 95 -107 251t105 261q104 104 247 104q138 0 226 -57t147 -172z" />
    <glyph glyph-name="T" unicode="T" horiz-adv-x="1069" 
d="M444 1262h-413v172h1007v-172h-413v-1262h-181v1262z" />
    <glyph glyph-name="U" unicode="U" horiz-adv-x="1339" 
d="M168 487v947h180v-959q0 -143 86 -231t236 -88t235.5 87.5t85.5 231.5v959h180v-947q0 -239 -143 -370q-142 -133 -358 -133t-361 133q-141 132 -141 370z" />
    <glyph glyph-name="V" unicode="V" horiz-adv-x="1200" 
d="M600 256l393 1178h191l-494 -1434h-180l-494 1434h191z" />
    <glyph glyph-name="W" unicode="W" horiz-adv-x="1851" 
d="M1313 266l291 1168h190l-383 -1434h-188l-297 985l-297 -985h-189l-383 1434h191l291 -1168l305 1016h164z" />
    <glyph glyph-name="X" unicode="X" horiz-adv-x="1179" 
d="M487 770l-389 664h207l285 -488l284 488h207l-389 -664l453 -770h-207l-348 594l-348 -594h-207z" />
    <glyph glyph-name="Y" unicode="Y" horiz-adv-x="1036" 
d="M428 0v618l-420 816h199l311 -635l311 635h199l-420 -816v-618h-180z" />
    <glyph glyph-name="Z" unicode="Z" horiz-adv-x="1136" 
d="M760 1262h-643v172h899v-86l-668 -1176h688v-172h-944v86z" />
    <glyph glyph-name="bracketleft" unicode="[" horiz-adv-x="661" 
d="M584 -102h-385v1638h385v-156h-222v-1327h222v-155z" />
    <glyph glyph-name="backslash" unicode="\" horiz-adv-x="1112" 
d="M901 -102l-893 1638h172l893 -1638h-172z" />
    <glyph glyph-name="bracketright" unicode="]" horiz-adv-x="661" 
d="M78 1380v156h385v-1638h-385v155h221v1327h-221z" />
    <glyph glyph-name="asciicircum" unicode="^" horiz-adv-x="1138" 
d="M119 862l381 572h139l381 -572h-170l-281 416l-280 -416h-170z" />
    <glyph glyph-name="underscore" unicode="_" horiz-adv-x="940" 
d="M879 -152h-818v152h818v-152z" />
    <glyph glyph-name="grave" unicode="`" horiz-adv-x="466" 
d="M39 1442h248l139 -295h-139z" />
    <glyph glyph-name="a" unicode="a" horiz-adv-x="1060" 
d="M291 297q0 -74 44.5 -116t125.5 -42q118 0 203 76q86 77 86 240v24h-185q-131 0 -202.5 -47.5t-71.5 -134.5zM922 659v-659h-136l-28 145q-112 -161 -324 -161q-145 0 -232 80t-87 233q0 162 124 250t343 88h168v45q0 213 -226 213q-82 0 -140 -43.5t-75 -118.5l-151 35
q20 130 119.5 206.5t246.5 76.5q185 0 291.5 -99t106.5 -291z" />
    <glyph glyph-name="b" unicode="b" horiz-adv-x="1230" 
d="M662 -16q-91 0 -177 41t-125 102v-127h-172v1450h172v-541q25 46 119 95q86 45 183 45q218 0 338 -144.5t120 -388.5t-120 -388t-338 -144zM645 893q-138 0 -218.5 -104t-80.5 -273t80.5 -273t218.5 -104q134 0 216.5 104.5t82.5 272.5t-82.5 272.5t-216.5 104.5z" />
    <glyph glyph-name="c" unicode="c" horiz-adv-x="1101" 
d="M862 330l150 -62q-126 -284 -432 -284q-226 0 -349 153q-120 156 -120 379q0 224 120 377q123 156 349 156q306 0 432 -285l-150 -62q-83 191 -282 191q-139 0 -216 -103.5t-77 -273.5t77 -273.5t216 -103.5q199 0 282 191z" />
    <glyph glyph-name="d" unicode="d" horiz-adv-x="1230" 
d="M569 1049q97 0 183 -45q93 -49 118 -95v541h172v-1450h-172v127q-39 -61 -124.5 -102t-176.5 -41q-218 0 -338 144t-120 388t120 388.5t338 144.5zM586 139q138 0 218.5 104t80.5 273t-80.5 273t-218.5 104q-134 0 -216.5 -104.5t-82.5 -272.5t82.5 -272.5t216.5 -104.5z
" />
    <glyph glyph-name="e" unicode="e" 
d="M1044 559v-80h-757q8 -156 84 -248t207 -92q107 0 174 47.5t112 149.5l152 -66q-72 -152 -175 -219t-263 -67q-224 0 -347 153q-120 156 -120 379q0 224 120 377q123 156 347 156q219 0 342 -144q124 -139 124 -346zM578 893q-113 0 -184.5 -68t-96.5 -190h567
q-26 121 -98.5 189.5t-187.5 68.5z" />
    <glyph glyph-name="f" unicode="f" horiz-adv-x="745" 
d="M244 877h-148v155h148v68q0 172 86.5 261t247.5 89q91 0 147 -33l-35 -151q-61 28 -115 28q-84 0 -121.5 -46.5t-37.5 -147.5v-68h237v-155h-237v-877h-172v877z" />
    <glyph glyph-name="g" unicode="g" horiz-adv-x="1038" 
d="M184 700q0 155 103 250q105 97 258 97q101 0 186 -46l184 105l78 -141l-139 -78q51 -77 51 -187q0 -156 -102 -251q-104 -93 -258 -93q-103 0 -178 37q-68 -35 -68 -100q0 -86 117 -86h243q150 0 237 -75t87 -210q0 -174 -119 -265t-317 -91q-200 0 -319 91t-119 249
q0 131 96 215q-70 58 -70 164q0 126 125 190q-76 91 -76 225zM633 59h-209q-14 0 -76 4q-67 -52 -67 -151q0 -89 69.5 -142t196.5 -53q126 0 193 51t67 138q0 153 -174 153zM408 846q-56 -53 -56 -146q0 -92 56 -145q56 -51 137 -51t137 51q55 52 55 145q0 94 -55 146
q-56 54 -137.5 54t-136.5 -54z" />
    <glyph glyph-name="h" unicode="h" horiz-adv-x="1198" 
d="M1022 717v-717h-172v682q0 211 -178 211q-122 0 -217 -127t-95 -328v-438h-172v1450h172v-610q50 97 145.5 153t213.5 56q144 0 223.5 -86t79.5 -246z" />
    <glyph glyph-name="i" unicode="i" horiz-adv-x="552" 
d="M190 0v1032h172v-1032h-172zM147 1319q0 56 37 93.5t92 37.5t92.5 -37.5t37.5 -93.5q0 -54 -37.5 -90.5t-92.5 -36.5t-92 36.5t-37 90.5z" />
    <glyph glyph-name="j" unicode="j" horiz-adv-x="552" 
d="M51 -434l-45 164q102 27 145.5 77.5t43.5 155.5v1069h172v-1085q0 -157 -81.5 -254.5t-234.5 -126.5zM147 1319q0 56 37 93.5t92 37.5t92.5 -37.5t37.5 -93.5q0 -54 -37.5 -90.5t-92.5 -36.5t-92 36.5t-37 90.5z" />
    <glyph glyph-name="k" unicode="k" horiz-adv-x="1046" 
d="M188 0v1450h172v-850l402 432h221l-438 -473l471 -559h-219l-437 518v-518h-172z" />
    <glyph glyph-name="l" unicode="l" horiz-adv-x="528" 
d="M184 0v1450h172v-1450h-172z" />
    <glyph glyph-name="m" unicode="m" horiz-adv-x="1765" 
d="M1585 727v-727h-172v690q0 203 -166 203q-119 0 -196.5 -128t-77.5 -341v-424h-172v690q0 203 -166 203q-119 0 -197 -128t-78 -341v-424h-172v1032h172v-190q106 207 322 207q106 0 178.5 -56.5t97.5 -158.5q114 215 336 215q139 0 215 -84.5t76 -237.5z" />
    <glyph glyph-name="n" unicode="n" horiz-adv-x="1181" 
d="M1006 727v-727h-172v682q0 211 -179 211q-120 0 -209 -127q-86 -127 -86 -334v-432h-172v1032h172v-190q118 207 342 207q142 0 223 -84.5t81 -237.5z" />
    <glyph glyph-name="o" unicode="o" horiz-adv-x="1212" 
d="M246 139q-135 156 -135 377q0 219 135 375q140 158 360 158q222 0 359 -158q137 -155 137 -375q0 -222 -137 -377q-134 -155 -359 -155q-223 0 -360 155zM371 780q-84 -113 -84 -264q0 -150 84 -266q85 -111 235 -111q152 0 234 111q86 115 86 266q0 152 -86 264
q-82 113 -234 113q-150 0 -235 -113z" />
    <glyph glyph-name="p" unicode="p" horiz-adv-x="1230" 
d="M662 -16q-97 0 -183 45q-95 50 -119 94v-541h-172v1450h172v-127q39 61 125 102.5t177 41.5q218 0 338 -144.5t120 -388.5t-120 -388t-338 -144zM645 893q-138 0 -218.5 -104t-80.5 -273t80.5 -273t218.5 -104q134 0 216.5 104.5t82.5 272.5t-82.5 272.5t-216.5 104.5z
" />
    <glyph glyph-name="q" unicode="q" horiz-adv-x="1230" 
d="M569 1049q91 0 176.5 -41.5t124.5 -102.5v127h172v-1450h-172v541q-24 -45 -118 -94q-86 -45 -183 -45q-218 0 -338 144t-120 388t120 388.5t338 144.5zM586 139q138 0 218.5 104t80.5 273t-80.5 273t-218.5 104q-134 0 -216.5 -104.5t-82.5 -272.5t82.5 -272.5
t216.5 -104.5z" />
    <glyph glyph-name="r" unicode="r" horiz-adv-x="845" 
d="M805 1018l-35 -154q-63 29 -121 29q-117 0 -203 -133t-86 -369v-391h-172v1032h172v-176q44 85 130 139t174 54q81 0 141 -31z" />
    <glyph glyph-name="s" unicode="s" horiz-adv-x="944" 
d="M483 1049q187 0 299 -158l-116 -100q-94 102 -189 102q-55 0 -90 -35.5t-35 -95.5q0 -37 26 -66.5t68.5 -50.5t93.5 -41.5t102.5 -46t94 -56.5t68.5 -79.5t26 -110.5q0 -153 -91.5 -240t-250.5 -87q-140 0 -239 76.5t-146 201.5l146 80q83 -203 239 -203q166 0 166 162
q0 90 -168 150q-39 15 -60 23.5t-59 26.5t-59.5 33t-49.5 40t-42.5 51t-25.5 62t-11 77q0 124 84 204.5t219 80.5z" />
    <glyph glyph-name="t" unicode="t" horiz-adv-x="774" 
d="M229 877h-178v155h178v309l172 109v-418h271v-155h-271v-568q0 -82 36 -126t102 -44q69 0 116 33l41 -149q-65 -39 -168 -39q-139 0 -219 88t-80 252v553z" />
    <glyph glyph-name="u" unicode="u" horiz-adv-x="1181" 
d="M176 305v727h172v-682q0 -211 178 -211q121 0 207 127q88 125 88 334v432h172v-1032h-172v190q-117 -206 -342 -206q-142 0 -222.5 84t-80.5 237z" />
    <glyph glyph-name="v" unicode="v" horiz-adv-x="933" 
d="M467 219l252 813h176l-340 -1032h-176l-340 1032h176z" />
    <glyph glyph-name="w" unicode="w" horiz-adv-x="1511" 
d="M1044 240l211 792h181l-314 -1032h-164l-202 784l-203 -784h-164l-313 1032h180l211 -792l203 792h172z" />
    <glyph glyph-name="x" unicode="x" horiz-adv-x="937" 
d="M373 545l-299 487h194l201 -327l201 327h194l-299 -487l336 -545h-194l-238 387l-238 -387h-194z" />
    <glyph glyph-name="y" unicode="y" horiz-adv-x="942" 
d="M481 287l256 745h181l-512 -1450h-177l164 461l-362 989h188z" />
    <glyph glyph-name="z" unicode="z" horiz-adv-x="933" 
d="M590 877h-461v155h692v-74l-489 -802h508v-156h-738v74z" />
    <glyph glyph-name="braceleft" unicode="{" horiz-adv-x="651" 
d="M291 102v373q0 92 -36 128t-128 36v156q92 0 128 35.5t36 127.5v373q0 92 56.5 148.5t148.5 56.5h98v-156h-47q-49 0 -70.5 -21t-21.5 -71v-370q0 -92 -36 -136.5t-112 -64.5q76 -20 112 -64.5t36 -136.5v-371q0 -49 21.5 -70.5t70.5 -21.5h47v-155h-98q-92 0 -148.5 56
t-56.5 148z" />
    <glyph glyph-name="bar" unicode="|" horiz-adv-x="561" 
d="M199 -102v1638h163v-1638h-163z" />
    <glyph glyph-name="braceright" unicode="}" horiz-adv-x="651" 
d="M360 475v-373q0 -92 -56 -148t-148 -56h-99v155h47q50 0 71.5 21.5t21.5 70.5v371q0 93 35.5 137t111.5 64q-76 20 -111.5 64t-35.5 137v370q0 49 -21.5 70.5t-71.5 21.5h-47v156h99q92 0 148 -56.5t56 -148.5v-373q0 -92 36 -127.5t128 -35.5v-156q-92 0 -128 -36
t-36 -128z" />
    <glyph glyph-name="asciitilde" unicode="~" horiz-adv-x="1286" 
d="M264 549l-100 102q44 85 116 134t154 49q90 0 209 -52q117 -51 188 -51q114 0 191 92l100 -104q-44 -85 -115 -132.5t-155 -47.5q-92 0 -209 51q-114 51 -188 51q-114 0 -191 -92z" />
    <glyph glyph-name="uni00A0" unicode="&#xa0;" horiz-adv-x="548" 
 />
    <glyph glyph-name="exclamdown" unicode="&#xa1;" horiz-adv-x="706" 
d="M416 602l49 -1024h-234l50 1024h135zM205 879q0 60 40.5 99.5t102.5 39.5t103 -39.5t41 -99.5q0 -62 -41.5 -104t-102.5 -42t-102 42t-41 104z" />
    <glyph glyph-name="cent" unicode="&#xa2;" 
d="M874 530l150 -61q-107 -246 -350 -281v-290h-164v292q-182 26 -287 177q-100 147 -100 350q0 204 100 348q103 152 287 178v293h164v-291q244 -35 350 -280l-150 -62q-80 189 -282 189q-139 0 -216 -103t-77 -272t77 -272t216 -103q202 0 282 188z" />
    <glyph glyph-name="sterling" unicode="&#xa3;" horiz-adv-x="1112" 
d="M299 664h-166v163h109q-37 110 -37 211q0 189 108 300.5t287 111.5q142 0 246.5 -74t154.5 -209l-153 -71q-44 102 -102.5 146t-145.5 44q-101 0 -162 -65t-61 -185q0 -114 33 -209h335v-163h-282q14 -60 14 -129q0 -208 -162 -363q82 55 179 55q60 0 137 -41
q74 -39 114 -39q56 0 97 30.5t88 109.5l135 -74q-122 -229 -309 -229q-85 0 -178 41q-90 41 -138 41q-121 0 -231 -82l-117 127q122 116 174.5 208.5t52.5 194.5q0 77 -20 150z" />
    <glyph glyph-name="currency" unicode="&#xa4;" horiz-adv-x="1134" 
d="M233 864l-180 137l142 142l137 -178q104 78 235.5 78t235.5 -78l137 178l141 -142l-180 -137q72 -104 72 -235.5t-72 -235.5l180 -137l-141 -141l-137 178q-104 -78 -235.5 -78t-235.5 78l-137 -178l-142 141l180 137q-72 104 -72 235.5t72 235.5zM391 815
q-65 -71 -65 -186q0 -116 65 -187q68 -71 176 -71q109 0 174 71q68 71 68 187q0 115 -68 186q-66 72 -174 72q-107 0 -176 -72z" />
    <glyph glyph-name="yen" unicode="&#xa5;" horiz-adv-x="1032" 
d="M344 793l-321 641h198l295 -619l295 619h199l-322 -641h238v-164h-320v-164h320v-164h-320v-301h-180v301h-320v164h320v164h-320v164h238z" />
    <glyph glyph-name="brokenbar" unicode="&#xa6;" horiz-adv-x="561" 
d="M199 -102v714h163v-714h-163zM362 1536v-715h-163v715h163z" />
    <glyph glyph-name="section" unicode="&#xa7;" horiz-adv-x="1105" 
d="M135 561q0 96 35.5 159.5t114.5 121.5q-84 96 -84 227q0 176 104 277q107 104 250 104q307 0 383 -303l-158 -51q-55 190 -225 190q-77 0 -129.5 -58.5t-52.5 -150.5q0 -107 78 -166q52 -36 79 -51q46 -24 115 -55q53 -24 123 -60q207 -112 207 -290q0 -96 -35.5 -159.5
t-114.5 -121.5q84 -96 84 -227q0 -177 -106 -277q-104 -104 -248 -104q-307 0 -383 303l158 51q55 -190 225 -190q77 0 129.5 58.5t52.5 150.5q0 107 -78 163q-44 35 -81 54q-37 21 -113 55q-69 31 -123 59q-207 112 -207 291zM293 580q0 -53 39 -101.5t94 -77.5l139 -63
q77 -35 137 -68q115 62 115 166q0 54 -39.5 101.5t-95.5 74.5q-38 21 -137 66q-88 40 -137 67q-115 -62 -115 -165z" />
    <glyph glyph-name="dieresis" unicode="&#xa8;" horiz-adv-x="653" 
d="M156 1450q51 0 83.5 -33.5t32.5 -83.5t-32.5 -82t-83.5 -32q-48 0 -81.5 32.5t-33.5 81.5t33.5 83t81.5 34zM496 1450q51 0 83.5 -33.5t32.5 -83.5t-32.5 -82t-83.5 -32q-48 0 -81.5 32.5t-33.5 81.5t33.5 83t81.5 34z" />
    <glyph glyph-name="copyright" unicode="&#xa9;" horiz-adv-x="1843" 
d="M365 145q-222 233 -222 572t222 569q224 230 557 230q335 0 555 -230q223 -226 223 -569t-223 -572q-220 -227 -555 -227q-333 0 -557 227zM477 1176q-170 -185 -170 -459t170 -459q169 -184 445 -184q275 0 444 184q170 185 170 459t-170 459q-169 184 -444 184
q-276 0 -445 -184zM1133 578l143 -35q-25 -123 -122 -196t-232 -73q-162 0 -281 113q-121 115 -121 330q0 212 121 327t281 115q135 0 232.5 -72.5t121.5 -195.5l-143 -35q-53 160 -211 160q-113 0 -179.5 -75.5t-66.5 -223.5t66.5 -223.5t179.5 -75.5q158 0 211 160z" />
    <glyph glyph-name="ordfeminine" unicode="&#xaa;" horiz-adv-x="894" 
d="M264 852q0 -59 35.5 -91t99.5 -32q97 0 162.5 64t65.5 182v26h-146q-102 0 -159.5 -40t-57.5 -109zM762 1137v-523h-111l-18 119q-89 -127 -256 -127q-113 0 -180.5 63.5t-67.5 182.5q0 128 96.5 196t268.5 68h133v35q0 168 -178 168q-64 0 -110.5 -34t-59.5 -93l-119 27
q20 99 101.5 161t197.5 62q144 0 223.5 -77.5t79.5 -227.5z" />
    <glyph glyph-name="guillemotleft" unicode="&#xab;" horiz-adv-x="1251" 
d="M1137 164l-568 407v127l568 408v-184l-400 -287l400 -287v-184zM666 164l-568 407v127l568 408v-184l-400 -287l400 -287v-184z" />
    <glyph glyph-name="logicalnot" unicode="&#xac;" horiz-adv-x="1189" 
d="M856 641h-715v156h887v-506h-172v350z" />
    <glyph glyph-name="uni00AD" unicode="&#xad;" horiz-adv-x="985" 
d="M840 573h-695v152h695v-152z" />
    <glyph glyph-name="registered" unicode="&#xae;" horiz-adv-x="1843" 
d="M365 145q-222 233 -222 572t222 569q224 230 557 230q335 0 555 -230q223 -226 223 -569t-223 -572q-220 -227 -555 -227q-333 0 -557 227zM477 1176q-170 -185 -170 -459t170 -459q169 -184 445 -184q275 0 444 184q170 185 170 459t-170 459q-169 184 -444 184
q-276 0 -445 -184zM1286 281h-168l-258 372h-78v-372h-147v872h313q129 0 200 -66.5t71 -183.5q0 -93 -53.5 -158.5t-139.5 -82.5zM946 1010h-164v-213h164q125 0 125 106q0 107 -125 107z" />
    <glyph glyph-name="overscore" unicode="&#xaf;" horiz-adv-x="559" 
d="M535 1294h-510v156h510v-156z" />
    <glyph glyph-name="degree" unicode="&#xb0;" horiz-adv-x="729" 
d="M199 1051q-64 64 -64 163q0 98 64 162q66 66 166 66q97 0 163 -66t66 -162q0 -97 -66 -163q-64 -64 -163 -64q-102 0 -166 64zM293 1286q-26 -26 -26 -71t26 -74q26 -26 71.5 -26t71.5 26q26 29 26 74t-26 71q-26 29 -71.5 29t-71.5 -29z" />
    <glyph glyph-name="plusminus" unicode="&#xb1;" horiz-adv-x="1163" 
d="M508 893v375h151v-375h375v-152h-375v-374h-151v374h-375v152h375zM1034 0h-901v152h901v-152z" />
    <glyph glyph-name="uni00B2" unicode="&#xb2;" horiz-adv-x="782" 
d="M268 1178l-131 34q11 101 80.5 165.5t171.5 64.5q115 0 180.5 -63.5t65.5 -174.5q0 -115 -78 -211l-211 -256h309v-123h-528v52l305 376q68 83 68 158q0 119 -111 119q-50 0 -82.5 -37.5t-38.5 -103.5z" />
    <glyph glyph-name="uni00B3" unicode="&#xb3;" horiz-adv-x="796" 
d="M127 850l131 18q7 -65 45 -102t96 -37q66 0 101 42t35 112q0 68 -35.5 106.5t-100.5 38.5q-44 0 -75 -22l-64 84l168 221h-262v123h457v-48l-193 -258q106 0 173 -68t67 -177q0 -122 -75 -199.5t-196 -77.5q-115 0 -189.5 67t-82.5 177z" />
    <glyph glyph-name="acute" unicode="&#xb4;" horiz-adv-x="466" 
d="M180 1147h-139l139 295h248z" />
    <glyph glyph-name="mu" unicode="&#xb5;" horiz-adv-x="1181" 
d="M348 6v-424h-172v1450h172v-682q0 -211 178 -211q121 0 207 127q88 125 88 334v432h172v-1032h-172v190q-117 -206 -342 -206q-70 0 -131 22z" />
    <glyph glyph-name="mu" unicode="&#x3bc;" horiz-adv-x="1181" 
d="M348 6v-424h-172v1450h172v-682q0 -211 178 -211q121 0 207 127q88 125 88 334v432h172v-1032h-172v190q-117 -206 -342 -206q-70 0 -131 22z" />
    <glyph glyph-name="paragraph" unicode="&#xb6;" horiz-adv-x="1402" 
d="M518 1434h750v-156h-127v-1696h-172v1696h-279v-1696h-172v1061q-162 0 -280 115q-115 118 -115 280q0 164 115 279q117 117 280 117z" />
    <glyph glyph-name="middot" unicode="&#xb7;" horiz-adv-x="626" 
d="M184 715q0 54 37 91.5t92 37.5q54 0 91.5 -37.5t37.5 -91.5q0 -55 -37.5 -92t-91.5 -37q-55 0 -92 37t-37 92z" />
    <glyph glyph-name="cedilla" unicode="&#xb8;" horiz-adv-x="405" 
d="M242 -123h143l-170 -358l-195 92z" />
    <glyph glyph-name="uni00B9" unicode="&#xb9;" horiz-adv-x="598" 
d="M117 1309l260 125h45v-820h-129v633l-176 -82v144z" />
    <glyph glyph-name="ordmasculine" unicode="&#xba;" horiz-adv-x="1056" 
d="M141 1024q0 172 105 295q108 123 282 123q173 0 281 -123q106 -121 106 -295q0 -176 -106 -297q-109 -121 -281 -121q-173 0 -282 121q-105 123 -105 297zM528 727q119 0 183 88q67 88 67 209t-65 207q-64 88 -185 88q-119 0 -186 -88q-66 -87 -66 -207q0 -118 66 -209
q67 -88 186 -88z" />
    <glyph glyph-name="guillemotright" unicode="&#xbb;" horiz-adv-x="1251" 
d="M115 1106l567 -408v-127l-567 -407v184l399 287l-399 287v184zM586 1106l567 -408v-127l-567 -407v184l399 287l-399 287v184z" />
    <glyph glyph-name="onequarter" unicode="&#xbc;" horiz-adv-x="1626" 
d="M160 1309l260 125h45v-820h-129v633l-176 -82v144zM213 23l1102 1470l102 -80l-1102 -1472zM1354 0h-129v158h-348v53l329 608h148v-538h96v-123h-96v-158zM1225 629l-181 -348h181v348z" />
    <glyph glyph-name="onehalf" unicode="&#xbd;" horiz-adv-x="1759" 
d="M160 1309l260 125h45v-820h-129v633l-176 -82v144zM1163 563l-131 35q11 101 80.5 165t171.5 64q115 0 180.5 -63.5t65.5 -173.5q0 -115 -78 -211l-211 -256h309v-123h-528v51l305 377q68 83 68 158q0 119 -111 119q-50 0 -82.5 -38t-38.5 -104zM213 23l1102 1470
l102 -80l-1102 -1472z" />
    <glyph glyph-name="threequarters" unicode="&#xbe;" horiz-adv-x="1751" 
d="M344 23l1102 1470l102 -80l-1102 -1472zM127 850l131 18q7 -65 45 -102t96 -37q66 0 101 42t35 112q0 68 -35.5 106.5t-100.5 38.5q-44 0 -75 -22l-64 84l168 221h-262v123h457v-48l-193 -258q106 0 173 -68t67 -177q0 -122 -75 -199.5t-196 -77.5q-115 0 -189.5 67
t-82.5 177zM1479 0h-129v158h-349v53l330 608h148v-538h96v-123h-96v-158zM1350 629l-181 -348h181v348z" />
    <glyph glyph-name="questiondown" unicode="&#xbf;" horiz-adv-x="917" 
d="M584 883q0 -60 -39 -100t-96 -40q-60 0 -100 40t-40 100q0 57 40 96t100 39q57 0 96 -39t39 -96zM307 336l-133 47q73 217 275 217q123 0 196.5 -69t73.5 -187q0 -170 -174 -258q-32 -18 -101.5 -46t-87.5 -38q-90 -50 -90 -145q0 -68 45 -107q51 -45 133 -45
q78 0 134 51.5t81 139.5l160 -27q-31 -144 -128 -225.5t-247 -81.5q-158 0 -254 90q-92 86 -92 215q0 167 156 244l207 100q100 54 100 141q0 49 -28 77t-78 28q-95 0 -148 -121z" />
    <glyph glyph-name="Agrave" unicode="&#xc0;" horiz-adv-x="1212" 
d="M25 0l495 1434h172l496 -1434h-180l-127 383h-549l-127 -383h-180zM823 555l-217 645l-217 -645h434zM324 1843h247l140 -295h-140z" />
    <glyph glyph-name="Aacute" unicode="&#xc1;" horiz-adv-x="1212" 
d="M25 0l495 1434h172l496 -1434h-180l-127 383h-549l-127 -383h-180zM823 555l-217 645l-217 -645h434zM621 1548h-140l140 295h247z" />
    <glyph glyph-name="Acircumflex" unicode="&#xc2;" horiz-adv-x="1212" 
d="M25 0l495 1434h172l496 -1434h-180l-127 383h-549l-127 -383h-180zM823 555l-217 645l-217 -645h434zM449 1561h-177l314 335h53l313 -335h-176l-164 174z" />
    <glyph glyph-name="Atilde" unicode="&#xc3;" horiz-adv-x="1212" 
d="M25 0l495 1434h172l496 -1434h-180l-127 383h-549l-127 -383h-180zM823 555l-217 645l-217 -645h434zM346 1602l-100 77q38 71 96 113.5t123 42.5q73 0 147 -41t121 -41q76 0 135 74l101 -80q-38 -69 -96.5 -111.5t-122.5 -42.5q-74 0 -148 41t-121 41q-77 0 -135 -73z
" />
    <glyph glyph-name="Adieresis" unicode="&#xc4;" horiz-adv-x="1212" 
d="M25 0l495 1434h172l496 -1434h-180l-127 383h-549l-127 -383h-180zM823 555l-217 645l-217 -645h434zM436 1851q51 0 84 -33t33 -83t-33 -82.5t-84 -32.5q-48 0 -81 33t-33 82t33 82.5t81 33.5zM776 1851q51 0 84 -33t33 -83t-33 -82.5t-84 -32.5q-48 0 -81 33t-33 82
t33 82.5t81 33.5z" />
    <glyph glyph-name="Aring" unicode="&#xc5;" horiz-adv-x="1212" 
d="M25 0l495 1434h172l496 -1434h-180l-127 383h-549l-127 -383h-180zM823 555l-217 645l-217 -645h434zM403 1739q0 86 58.5 145.5t144.5 59.5q87 0 145 -59t58 -146q0 -85 -57.5 -141t-145.5 -56q-87 0 -145 56t-58 141zM518 1741q-5 -55 41.5 -78t93 0t41.5 78
q5 58 -41.5 82t-93 0t-41.5 -82z" />
    <glyph glyph-name="AE" unicode="&#xc6;" horiz-adv-x="1699" 
d="M20 0l625 1434h918v-172h-643v-412h520v-172h-520v-506h663v-172h-844v383h-370l-164 -383h-185zM739 1198h-20l-277 -643h297v643z" />
    <glyph glyph-name="Ccedilla" unicode="&#xc7;" horiz-adv-x="1409" 
d="M1147 469l174 -51q-50 -196 -197 -316q-145 -118 -364 -118q-270 0 -459 192q-188 194 -188 541q0 346 188 540q190 193 459 193q216 0 364 -121t197 -313l-174 -51q-102 313 -387 313q-204 0 -334 -145q-127 -145 -127 -416t127 -416q130 -145 334 -145q285 0 387 313z
M741 -123h144l-170 -358l-195 92z" />
    <glyph glyph-name="Egrave" unicode="&#xc8;" horiz-adv-x="1159" 
d="M199 0v1434h823v-172h-643v-412h520v-172h-520v-506h663v-172h-843zM381 1843h248l139 -295h-139z" />
    <glyph glyph-name="Eacute" unicode="&#xc9;" horiz-adv-x="1159" 
d="M199 0v1434h823v-172h-643v-412h520v-172h-520v-506h663v-172h-843zM608 1548h-139l139 295h248z" />
    <glyph glyph-name="Ecircumflex" unicode="&#xca;" horiz-adv-x="1159" 
d="M199 0v1434h823v-172h-643v-412h520v-172h-520v-506h663v-172h-843zM483 1561h-176l314 335h53l313 -335h-176l-164 174z" />
    <glyph glyph-name="Edieresis" unicode="&#xcb;" horiz-adv-x="1159" 
d="M199 0v1434h823v-172h-643v-412h520v-172h-520v-506h663v-172h-843zM451 1851q51 0 83.5 -33t32.5 -83t-32.5 -82.5t-83.5 -32.5q-48 0 -81.5 33t-33.5 82t33.5 82.5t81.5 33.5zM791 1851q51 0 83.5 -33t32.5 -83t-32.5 -82.5t-83.5 -32.5q-48 0 -81.5 33t-33.5 82
t33.5 82.5t81.5 33.5z" />
    <glyph glyph-name="Igrave" unicode="&#xcc;" horiz-adv-x="577" 
d="M199 0v1434h180v-1434h-180zM33 1843h248l139 -295h-139z" />
    <glyph glyph-name="Iacute" unicode="&#xcd;" horiz-adv-x="577" 
d="M199 0v1434h180v-1434h-180zM295 1548h-139l139 295h248z" />
    <glyph glyph-name="Icircumflex" unicode="&#xce;" horiz-adv-x="577" 
d="M199 0v1434h180v-1434h-180zM131 1561h-176l313 335h54l313 -335h-176l-164 174z" />
    <glyph glyph-name="Idieresis" unicode="&#xcf;" horiz-adv-x="577" 
d="M199 0v1434h180v-1434h-180zM119 1851q51 0 84 -33t33 -83t-33 -82.5t-84 -32.5q-48 0 -81.5 33t-33.5 82t33.5 82.5t81.5 33.5zM459 1851q51 0 83.5 -33t32.5 -83t-32.5 -82.5t-83.5 -32.5q-48 0 -81.5 33t-33.5 82t33.5 82.5t81.5 33.5z" />
    <glyph glyph-name="Eth" unicode="&#xd0;" horiz-adv-x="1406" 
d="M242 631h-170v172h170v631h393q279 0 469 -193q190 -190 190 -524t-190 -527q-190 -190 -469 -190h-393v631zM604 1262h-182v-459h170v-172h-170v-459h182q82 0 153.5 18t135.5 59t110 102.5t72.5 155t26.5 210.5t-26.5 210.5t-72.5 155t-110 102.5t-135.5 59t-153.5 18z
" />
    <glyph glyph-name="Ntilde" unicode="&#xd1;" horiz-adv-x="1435" 
d="M1057 313v1121h180v-1434h-211l-647 1116v-1116h-180v1434h211zM467 1602l-100 77q38 71 96 113.5t123 42.5q73 0 147 -41t121 -41q76 0 135 74l101 -80q-38 -69 -96.5 -111.5t-123.5 -42.5q-73 0 -147 41t-121 41q-77 0 -135 -73z" />
    <glyph glyph-name="Ograve" unicode="&#xd2;" horiz-adv-x="1511" 
d="M299 1253q188 197 457 197q268 0 456 -197q187 -193 187 -536t-187 -539q-188 -194 -456 -194q-269 0 -457 194q-186 195 -186 539t186 536zM1083 1133q-127 145 -327 145t-330 -145q-127 -145 -127 -416t127 -416q130 -145 330 -145t327 145q129 144 129 416t-129 416z
M520 1843h248l139 -295h-139z" />
    <glyph glyph-name="Oacute" unicode="&#xd3;" horiz-adv-x="1511" 
d="M299 1253q188 197 457 197q268 0 456 -197q187 -193 187 -536t-187 -539q-188 -194 -456 -194q-269 0 -457 194q-186 195 -186 539t186 536zM1083 1133q-127 145 -327 145t-330 -145q-127 -145 -127 -416t127 -416q130 -145 330 -145t327 145q129 144 129 416t-129 416z
M741 1548h-139l139 295h248z" />
    <glyph glyph-name="Ocircumflex" unicode="&#xd4;" horiz-adv-x="1511" 
d="M299 1253q188 197 457 197q268 0 456 -197q187 -193 187 -536t-187 -539q-188 -194 -456 -194q-269 0 -457 194q-186 195 -186 539t186 536zM1083 1133q-127 145 -327 145t-330 -145q-127 -145 -127 -416t127 -416q130 -145 330 -145t327 145q129 144 129 416t-129 416z
M598 1561h-176l313 335h53l314 -335h-176l-164 174z" />
    <glyph glyph-name="Otilde" unicode="&#xd5;" horiz-adv-x="1511" 
d="M299 1253q188 197 457 197q268 0 456 -197q187 -193 187 -536t-187 -539q-188 -194 -456 -194q-269 0 -457 194q-186 195 -186 539t186 536zM1083 1133q-127 145 -327 145t-330 -145q-127 -145 -127 -416t127 -416q130 -145 330 -145t327 145q129 144 129 416t-129 416z
M496 1602l-101 77q38 71 96 113.5t123 42.5q74 0 148 -41t121 -41q76 0 135 74l100 -80q-38 -69 -96.5 -111.5t-122.5 -42.5q-73 0 -147 41t-121 41q-77 0 -135 -73z" />
    <glyph glyph-name="Odieresis" unicode="&#xd6;" horiz-adv-x="1511" 
d="M299 1253q188 197 457 197q268 0 456 -197q187 -193 187 -536t-187 -539q-188 -194 -456 -194q-269 0 -457 194q-186 195 -186 539t186 536zM1083 1133q-127 145 -327 145t-330 -145q-127 -145 -127 -416t127 -416q130 -145 330 -145t327 145q129 144 129 416t-129 416z
M586 1851q51 0 83.5 -33t32.5 -83t-32.5 -82.5t-83.5 -32.5q-48 0 -81.5 33t-33.5 82t33.5 82.5t81.5 33.5zM926 1851q51 0 83.5 -33t32.5 -83t-32.5 -82.5t-83.5 -32.5q-48 0 -81.5 33t-33.5 82t33.5 82.5t81.5 33.5z" />
    <glyph glyph-name="multiply" unicode="&#xd7;" horiz-adv-x="1134" 
d="M567 760l324 323l106 -106l-323 -324l323 -323l-106 -107l-324 324l-323 -324l-107 107l324 323l-324 324l107 106z" />
    <glyph glyph-name="Oslash" unicode="&#xd8;" horiz-adv-x="1511" 
d="M756 1450q215 0 374 -123l125 162l121 -90l-137 -176q160 -201 160 -506q0 -343 -187 -539q-188 -194 -456 -194q-217 0 -375 122l-125 -161l-121 90l137 176q-159 199 -159 506q0 344 186 536q188 197 457 197zM1212 717q0 219 -88 356l-637 -829q113 -88 269 -88
q200 0 327 145q129 144 129 416zM756 1278q-200 0 -330 -145q-127 -145 -127 -416q0 -220 88 -357l637 830q-113 88 -268 88z" />
    <glyph glyph-name="Ugrave" unicode="&#xd9;" horiz-adv-x="1339" 
d="M168 487v947h180v-959q0 -143 86 -231t236 -88t235.5 87.5t85.5 231.5v959h180v-947q0 -239 -143 -370q-142 -133 -358 -133t-361 133q-141 132 -141 370zM444 1843h248l139 -295h-139z" />
    <glyph glyph-name="Uacute" unicode="&#xda;" horiz-adv-x="1339" 
d="M168 487v947h180v-959q0 -143 86 -231t236 -88t235.5 87.5t85.5 231.5v959h180v-947q0 -239 -143 -370q-142 -133 -358 -133t-361 133q-141 132 -141 370zM645 1548h-139l139 295h248z" />
    <glyph glyph-name="Ucircumflex" unicode="&#xdb;" horiz-adv-x="1339" 
d="M168 487v947h180v-959q0 -143 86 -231t236 -88t235.5 87.5t85.5 231.5v959h180v-947q0 -239 -143 -370q-142 -133 -358 -133t-361 133q-141 132 -141 370zM512 1561h-176l313 335h53l314 -335h-176l-164 174z" />
    <glyph glyph-name="Udieresis" unicode="&#xdc;" horiz-adv-x="1339" 
d="M168 487v947h180v-959q0 -143 86 -231t236 -88t235.5 87.5t85.5 231.5v959h180v-947q0 -239 -143 -370q-142 -133 -358 -133t-361 133q-141 132 -141 370zM500 1851q51 0 83.5 -33t32.5 -83t-32.5 -82.5t-83.5 -32.5q-48 0 -81.5 33t-33.5 82t33.5 82.5t81.5 33.5z
M840 1851q51 0 83.5 -33t32.5 -83t-32.5 -82.5t-83.5 -32.5q-48 0 -81.5 33t-33.5 82t33.5 82.5t81.5 33.5z" />
    <glyph glyph-name="Yacute" unicode="&#xdd;" horiz-adv-x="1036" 
d="M428 0v618l-420 816h199l311 -635l311 635h199l-420 -816v-618h-180zM547 1548h-139l139 295h248z" />
    <glyph glyph-name="Thorn" unicode="&#xde;" horiz-adv-x="1196" 
d="M698 307h-319v-307h-180v1434h180v-308h319q200 0 313 -109.5t113 -299.5t-113 -300t-313 -110zM379 479h330q110 0 169.5 61.5t59.5 176.5t-59 176t-170 61h-330v-475z" />
    <glyph glyph-name="germandbls" unicode="&#xdf;" horiz-adv-x="1134" 
d="M180 709h-102v151h102v174q0 199 111 307q112 109 276 109q179 0 280 -101.5t101 -265.5q0 -109 -50.5 -183t-133.5 -101q110 -21 194 -117q86 -95 86 -248q0 -222 -117 -336t-323 -114q-88 0 -145 14v156q71 -15 145 -15q130 0 199 72t69 211q0 138 -76 212.5t-212 74.5
h-72v151h72q200 0 200 217q0 102 -58.5 159.5t-158.5 57.5q-103 0 -159 -68.5t-56 -197.5v-1028h-172v709z" />
    <glyph glyph-name="agrave" unicode="&#xe0;" horiz-adv-x="1060" 
d="M291 297q0 -74 44.5 -116t125.5 -42q118 0 203 76q86 77 86 240v24h-185q-131 0 -202.5 -47.5t-71.5 -134.5zM922 659v-659h-136l-28 145q-112 -161 -324 -161q-145 0 -232 80t-87 233q0 162 124 250t343 88h168v45q0 213 -226 213q-82 0 -140 -43.5t-75 -118.5l-151 35
q20 130 119.5 206.5t246.5 76.5q185 0 291.5 -99t106.5 -291zM276 1442h248l140 -295h-140z" />
    <glyph glyph-name="aacute" unicode="&#xe1;" horiz-adv-x="1060" 
d="M291 297q0 -74 44.5 -116t125.5 -42q118 0 203 76q86 77 86 240v24h-185q-131 0 -202.5 -47.5t-71.5 -134.5zM922 659v-659h-136l-28 145q-112 -161 -324 -161q-145 0 -232 80t-87 233q0 162 124 250t343 88h168v45q0 213 -226 213q-82 0 -140 -43.5t-75 -118.5l-151 35
q20 130 119.5 206.5t246.5 76.5q185 0 291.5 -99t106.5 -291zM510 1147h-139l139 295h248z" />
    <glyph glyph-name="acircumflex" unicode="&#xe2;" horiz-adv-x="1060" 
d="M291 297q0 -74 44.5 -116t125.5 -42q118 0 203 76q86 77 86 240v24h-185q-131 0 -202.5 -47.5t-71.5 -134.5zM922 659v-659h-136l-28 145q-112 -161 -324 -161q-145 0 -232 80t-87 233q0 162 124 250t343 88h168v45q0 213 -226 213q-82 0 -140 -43.5t-75 -118.5l-151 35
q20 130 119.5 206.5t246.5 76.5q185 0 291.5 -99t106.5 -291zM369 1159h-176l313 336h53l313 -336h-176l-164 174z" />
    <glyph glyph-name="atilde" unicode="&#xe3;" horiz-adv-x="1060" 
d="M291 297q0 -74 44.5 -116t125.5 -42q118 0 203 76q86 77 86 240v24h-185q-131 0 -202.5 -47.5t-71.5 -134.5zM922 659v-659h-136l-28 145q-112 -161 -324 -161q-145 0 -232 80t-87 233q0 162 124 250t343 88h168v45q0 213 -226 213q-82 0 -140 -43.5t-75 -118.5l-151 35
q20 130 119.5 206.5t246.5 76.5q185 0 291.5 -99t106.5 -291zM279 1200l-101 78q38 71 96 113.5t123 42.5q74 0 148 -41t121 -41q77 0 135 73l100 -79q-38 -69 -96.5 -111.5t-122.5 -42.5q-73 0 -147 41t-121 41q-76 0 -135 -74z" />
    <glyph glyph-name="adieresis" unicode="&#xe4;" horiz-adv-x="1060" 
d="M291 297q0 -74 44.5 -116t125.5 -42q118 0 203 76q86 77 86 240v24h-185q-131 0 -202.5 -47.5t-71.5 -134.5zM922 659v-659h-136l-28 145q-112 -161 -324 -161q-145 0 -232 80t-87 233q0 162 124 250t343 88h168v45q0 213 -226 213q-82 0 -140 -43.5t-75 -118.5l-151 35
q20 130 119.5 206.5t246.5 76.5q185 0 291.5 -99t106.5 -291zM362 1450q51 0 84 -33.5t33 -83.5t-33 -82t-84 -32q-48 0 -81 32.5t-33 81.5t33.5 83t80.5 34zM702 1450q51 0 84 -33.5t33 -83.5t-33 -82t-84 -32q-48 0 -81 32.5t-33 81.5t33.5 83t80.5 34z" />
    <glyph glyph-name="aring" unicode="&#xe5;" horiz-adv-x="1060" 
d="M291 297q0 -74 44.5 -116t125.5 -42q118 0 203 76q86 77 86 240v24h-185q-131 0 -202.5 -47.5t-71.5 -134.5zM922 659v-659h-136l-28 145q-112 -161 -324 -161q-145 0 -232 80t-87 233q0 162 124 250t343 88h168v45q0 213 -226 213q-82 0 -140 -43.5t-75 -118.5l-151 35
q20 130 119.5 206.5t246.5 76.5q185 0 291.5 -99t106.5 -291zM322 1337q0 87 58 146t144 59q87 0 145 -59t58 -146q0 -85 -57.5 -140.5t-145.5 -55.5q-87 0 -144.5 55.5t-57.5 140.5zM436 1339q-5 -55 41.5 -78t93 0t41.5 78q5 58 -41.5 82t-93 0t-41.5 -82z" />
    <glyph glyph-name="ae" unicode="&#xe6;" horiz-adv-x="1785" 
d="M1683 559v-80h-757q8 -156 84 -248t207 -92q107 0 174 47.5t112 149.5l152 -66q-72 -152 -175 -219t-263 -67q-272 0 -398 231q-129 -231 -385 -231q-145 0 -232 80t-87 233q0 162 124 250t343 88h168v45q0 213 -226 213q-82 0 -140 -43.5t-75 -118.5l-151 35
q20 130 119.5 206.5t246.5 76.5q244 0 342 -162q128 162 351 162q219 0 342 -144q124 -139 124 -346zM291 297q0 -74 44.5 -116t125.5 -42q118 0 203 76q86 77 86 240v24h-185q-131 0 -202.5 -47.5t-71.5 -134.5zM1217 893q-113 0 -184.5 -68t-96.5 -190h567
q-21 118 -95.5 188t-190.5 70z" />
    <glyph glyph-name="ccedilla" unicode="&#xe7;" horiz-adv-x="1101" 
d="M862 330l150 -62q-126 -284 -432 -284q-226 0 -349 153q-120 156 -120 379q0 224 120 377q123 156 349 156q306 0 432 -285l-150 -62q-83 191 -282 191q-139 0 -216 -103.5t-77 -273.5t77 -273.5t216 -103.5q199 0 282 191zM604 -123h144l-170 -358l-195 92z" />
    <glyph glyph-name="egrave" unicode="&#xe8;" 
d="M1044 559v-80h-757q8 -156 84 -248t207 -92q107 0 174 47.5t112 149.5l152 -66q-72 -152 -175 -219t-263 -67q-224 0 -347 153q-120 156 -120 379q0 224 120 377q123 156 347 156q219 0 342 -144q124 -139 124 -346zM578 893q-113 0 -184.5 -68t-96.5 -190h567
q-26 121 -98.5 189.5t-187.5 68.5zM328 1442h247l140 -295h-140z" />
    <glyph glyph-name="eacute" unicode="&#xe9;" 
d="M1044 559v-80h-757q8 -156 84 -248t207 -92q107 0 174 47.5t112 149.5l152 -66q-72 -152 -175 -219t-263 -67q-224 0 -347 153q-120 156 -120 379q0 224 120 377q123 156 347 156q219 0 342 -144q124 -139 124 -346zM578 893q-113 0 -184.5 -68t-96.5 -190h567
q-26 121 -98.5 189.5t-187.5 68.5zM553 1147h-139l139 295h248z" />
    <glyph glyph-name="ecircumflex" unicode="&#xea;" 
d="M1044 559v-80h-757q8 -156 84 -248t207 -92q107 0 174 47.5t112 149.5l152 -66q-72 -152 -175 -219t-263 -67q-224 0 -347 153q-120 156 -120 379q0 224 120 377q123 156 347 156q219 0 342 -144q124 -139 124 -346zM578 893q-113 0 -184.5 -68t-96.5 -190h567
q-26 121 -98.5 189.5t-187.5 68.5zM414 1159h-176l313 336h53l314 -336h-177l-163 174z" />
    <glyph glyph-name="edieresis" unicode="&#xeb;" 
d="M1044 559v-80h-757q8 -156 84 -248t207 -92q107 0 174 47.5t112 149.5l152 -66q-72 -152 -175 -219t-263 -67q-224 0 -347 153q-120 156 -120 379q0 224 120 377q123 156 347 156q219 0 342 -144q124 -139 124 -346zM578 893q-113 0 -184.5 -68t-96.5 -190h567
q-26 121 -98.5 189.5t-187.5 68.5zM408 1450q51 0 83.5 -33.5t32.5 -83.5t-32.5 -82t-83.5 -32q-48 0 -81.5 32.5t-33.5 81.5t33.5 83t81.5 34zM748 1450q51 0 83.5 -33.5t32.5 -83.5t-32.5 -82t-83.5 -32q-48 0 -81.5 32.5t-33.5 81.5t33.5 83t81.5 34z" />
    <glyph glyph-name="igrave" unicode="&#xec;" horiz-adv-x="552" 
d="M190 0v1032h172v-1032h-172zM23 1442h247l140 -295h-140z" />
    <glyph glyph-name="iacute" unicode="&#xed;" horiz-adv-x="552" 
d="M190 0v1032h172v-1032h-172zM285 1147h-140l140 295h247z" />
    <glyph glyph-name="icircumflex" unicode="&#xee;" horiz-adv-x="552" 
d="M190 0v1032h172v-1032h-172zM119 1159h-176l313 336h53l314 -336h-177l-163 174z" />
    <glyph glyph-name="idieresis" unicode="&#xef;" horiz-adv-x="552" 
d="M190 0v1032h172v-1032h-172zM106 1450q51 0 84 -33.5t33 -83.5t-33 -82t-84 -32q-48 0 -81 32.5t-33 81.5t33.5 83t80.5 34zM446 1450q51 0 84 -33.5t33 -83.5t-33 -82t-84 -32q-48 0 -81 32.5t-33 81.5t33.5 83t80.5 34z" />
    <glyph glyph-name="eth" unicode="&#xf0;" horiz-adv-x="1187" 
d="M600 1231l-80 -121l-121 86l78 117q-63 37 -164 78l82 125q108 -48 164 -80l76 110l119 -86l-70 -104q208 -156 300.5 -357t92.5 -483q0 -222 -131 -377q-128 -155 -352 -155q-223 0 -354 155q-129 156 -129 377t129 377q132 156 354 156q67 0 133.5 -26.5t97.5 -64.5
q-53 144 -225 273zM901 516q0 161 -82 268q-80 109 -225 109q-150 0 -229 -111q-78 -113 -78 -266t78 -266q79 -111 229 -111t227 111q80 112 80 266z" />
    <glyph glyph-name="ntilde" unicode="&#xf1;" horiz-adv-x="1181" 
d="M1006 727v-727h-172v682q0 211 -179 211q-120 0 -209 -127q-86 -127 -86 -334v-432h-172v1032h172v-190q118 207 342 207q142 0 223 -84.5t81 -237.5zM334 1200l-101 78q38 71 96.5 113.5t123.5 42.5q73 0 147 -41t121 -41q77 0 135 73l100 -79q-38 -69 -96.5 -111.5
t-122.5 -42.5q-73 0 -147 41t-121 41q-76 0 -135 -74z" />
    <glyph glyph-name="ograve" unicode="&#xf2;" horiz-adv-x="1212" 
d="M246 139q-135 156 -135 377q0 219 135 375q140 158 360 158q222 0 359 -158q137 -155 137 -375q0 -222 -137 -377q-134 -155 -359 -155q-223 0 -360 155zM371 780q-84 -113 -84 -264q0 -150 84 -266q85 -111 235 -111q152 0 234 111q86 115 86 266q0 152 -86 264
q-82 113 -234 113q-150 0 -235 -113zM371 1442h247l140 -295h-140z" />
    <glyph glyph-name="oacute" unicode="&#xf3;" horiz-adv-x="1212" 
d="M246 139q-135 156 -135 377q0 219 135 375q140 158 360 158q222 0 359 -158q137 -155 137 -375q0 -222 -137 -377q-134 -155 -359 -155q-223 0 -360 155zM371 780q-84 -113 -84 -264q0 -150 84 -266q85 -111 235 -111q152 0 234 111q86 115 86 266q0 152 -86 264
q-82 113 -234 113q-150 0 -235 -113zM592 1147h-139l139 295h248z" />
    <glyph glyph-name="ocircumflex" unicode="&#xf4;" horiz-adv-x="1212" 
d="M246 139q-135 156 -135 377q0 219 135 375q140 158 360 158q222 0 359 -158q137 -155 137 -375q0 -222 -137 -377q-134 -155 -359 -155q-223 0 -360 155zM371 780q-84 -113 -84 -264q0 -150 84 -266q85 -111 235 -111q152 0 234 111q86 115 86 266q0 152 -86 264
q-82 113 -234 113q-150 0 -235 -113zM442 1159h-176l314 336h53l313 -336h-176l-164 174z" />
    <glyph glyph-name="otilde" unicode="&#xf5;" horiz-adv-x="1212" 
d="M246 139q-135 156 -135 377q0 219 135 375q140 158 360 158q222 0 359 -158q137 -155 137 -375q0 -222 -137 -377q-134 -155 -359 -155q-223 0 -360 155zM371 780q-84 -113 -84 -264q0 -150 84 -266q85 -111 235 -111q152 0 234 111q86 115 86 266q0 152 -86 264
q-82 113 -234 113q-150 0 -235 -113zM346 1200l-100 78q38 71 96 113.5t123 42.5q73 0 147 -41t121 -41q77 0 135 73l101 -79q-38 -69 -96.5 -111.5t-122.5 -42.5q-74 0 -148 41t-121 41q-76 0 -135 -74z" />
    <glyph glyph-name="odieresis" unicode="&#xf6;" horiz-adv-x="1212" 
d="M246 139q-135 156 -135 377q0 219 135 375q140 158 360 158q222 0 359 -158q137 -155 137 -375q0 -222 -137 -377q-134 -155 -359 -155q-223 0 -360 155zM371 780q-84 -113 -84 -264q0 -150 84 -266q85 -111 235 -111q152 0 234 111q86 115 86 266q0 152 -86 264
q-82 113 -234 113q-150 0 -235 -113zM436 1450q51 0 84 -33.5t33 -83.5t-33 -82t-84 -32q-48 0 -81 32.5t-33 81.5t33.5 83t80.5 34zM776 1450q51 0 84 -33.5t33 -83.5t-33 -82t-84 -32q-48 0 -81 32.5t-33 81.5t33.5 83t80.5 34z" />
    <glyph glyph-name="divide" unicode="&#xf7;" horiz-adv-x="1097" 
d="M420 262q0 54 37 91.5t92 37.5q54 0 91.5 -37.5t37.5 -91.5q0 -55 -37.5 -92t-91.5 -37q-55 0 -92 36.5t-37 92.5zM420 1028q0 54 37 91.5t92 37.5q54 0 91.5 -37.5t37.5 -91.5q0 -55 -37.5 -92t-91.5 -37q-55 0 -92 36.5t-37 92.5zM999 573h-901v152h901v-152z" />
    <glyph glyph-name="oslash" unicode="&#xf8;" horiz-adv-x="1212" 
d="M868 975l115 145l123 -88l-125 -160q121 -151 121 -356q0 -222 -137 -377q-134 -155 -359 -155q-149 0 -262 73l-115 -145l-123 88l125 160q-120 150 -120 356q0 219 135 375q140 158 360 158q147 0 262 -74zM926 516q0 120 -54 217l-428 -547q74 -47 162 -47
q152 0 234 111q86 115 86 266zM287 516q0 -122 53 -217l428 547q-74 47 -162 47q-150 0 -235 -113q-84 -113 -84 -264z" />
    <glyph glyph-name="ugrave" unicode="&#xf9;" horiz-adv-x="1181" 
d="M176 305v727h172v-682q0 -211 178 -211q121 0 207 127q88 125 88 334v432h172v-1032h-172v190q-117 -206 -342 -206q-142 0 -222.5 84t-80.5 237zM340 1442h248l139 -295h-139z" />
    <glyph glyph-name="uacute" unicode="&#xfa;" horiz-adv-x="1181" 
d="M176 305v727h172v-682q0 -211 178 -211q121 0 207 127q88 125 88 334v432h172v-1032h-172v190q-117 -206 -342 -206q-142 0 -222.5 84t-80.5 237zM575 1147h-139l139 295h248z" />
    <glyph glyph-name="ucircumflex" unicode="&#xfb;" horiz-adv-x="1181" 
d="M176 305v727h172v-682q0 -211 178 -211q121 0 207 127q88 125 88 334v432h172v-1032h-172v190q-117 -206 -342 -206q-142 0 -222.5 84t-80.5 237zM424 1159h-176l313 336h53l314 -336h-176l-164 174z" />
    <glyph glyph-name="udieresis" unicode="&#xfc;" horiz-adv-x="1181" 
d="M176 305v727h172v-682q0 -211 178 -211q121 0 207 127q88 125 88 334v432h172v-1032h-172v190q-117 -206 -342 -206q-142 0 -222.5 84t-80.5 237zM416 1450q51 0 83.5 -33.5t32.5 -83.5t-32.5 -82t-83.5 -32q-48 0 -81.5 32.5t-33.5 81.5t33.5 83t81.5 34zM756 1450
q51 0 83.5 -33.5t32.5 -83.5t-32.5 -82t-83.5 -32q-48 0 -81.5 32.5t-33.5 81.5t33.5 83t81.5 34z" />
    <glyph glyph-name="yacute" unicode="&#xfd;" horiz-adv-x="942" 
d="M481 287l256 745h181l-512 -1450h-177l164 461l-362 989h188zM516 1147h-139l139 295h248z" />
    <glyph glyph-name="thorn" unicode="&#xfe;" horiz-adv-x="1230" 
d="M662 -16q-91 0 -177 41t-125 102v-545h-172v1868h172v-541q25 46 119 95q86 45 183 45q218 0 338 -144.5t120 -388.5t-120 -388t-338 -144zM645 893q-138 0 -218.5 -104t-80.5 -273t80.5 -273t218.5 -104q134 0 216.5 104.5t82.5 272.5t-82.5 272.5t-216.5 104.5z" />
    <glyph glyph-name="ydieresis" unicode="&#xff;" horiz-adv-x="942" 
d="M481 287l256 745h181l-512 -1450h-177l164 461l-362 989h188zM313 1450q51 0 84 -33.5t33 -83.5t-33 -82t-84 -32q-48 0 -81 32.5t-33 81.5t33.5 83t80.5 34zM653 1450q51 0 84 -33.5t33 -83.5t-33 -82t-84 -32q-48 0 -81 32.5t-33 81.5t33.5 83t80.5 34z" />
    <glyph glyph-name="dotlessi" unicode="&#x131;" horiz-adv-x="552" 
d="M190 0v1032h172v-1032h-172z" />
    <glyph glyph-name="Lslash" unicode="&#x141;" horiz-adv-x="1067" 
d="M199 715v719h180v-619l239 133l74 -133l-313 -172v-471h651v-172h-831v543l-133 -76l-74 133z" />
    <glyph glyph-name="lslash" unicode="&#x142;" horiz-adv-x="694" 
d="M254 778v672h172v-580l135 78l74 -133l-209 -117v-698h-172v606l-135 -76l-74 134z" />
    <glyph glyph-name="OE" unicode="&#x152;" horiz-adv-x="2179" 
d="M1219 1247v187h823v-172h-643v-412h520v-172h-520v-506h663v-172h-843v186q-181 -202 -463 -202q-269 0 -457 194q-186 195 -186 539t186 536q188 197 457 197q281 0 463 -203zM1083 1133q-127 145 -327 145t-330 -145q-127 -145 -127 -416t127 -416q130 -145 330 -145
t327 145q129 144 129 416t-129 416z" />
    <glyph glyph-name="oe" unicode="&#x153;" horiz-adv-x="1961" 
d="M1860 559v-80h-758q8 -156 84 -248t207 -92q107 0 174 47.5t112 149.5l152 -66q-72 -152 -175 -219t-263 -67q-255 0 -385 213q-142 -213 -402 -213q-223 0 -360 155q-135 156 -135 377q0 219 135 375q140 158 360 158q260 0 402 -213q127 213 385 213q219 0 342 -144
q125 -140 125 -346zM606 139q147 0 232 113q88 113 88 264t-88 264q-85 113 -232 113q-150 0 -235 -113q-84 -113 -84 -264q0 -150 84 -266q85 -111 235 -111zM1393 893q-113 0 -184.5 -68t-96.5 -190h567q-21 118 -95.5 188t-190.5 70z" />
    <glyph glyph-name="Scaron" unicode="&#x160;" horiz-adv-x="1071" 
d="M901 1221l-145 -95q-48 85 -100.5 118.5t-127.5 33.5q-73 0 -122.5 -52.5t-49.5 -125.5q0 -52 19 -91t65 -75q58 -41 82 -53l111 -58q116 -58 188 -112q75 -56 112.5 -125.5t41.5 -173.5q0 -173 -111 -293q-123 -135 -319 -135q-175 0 -301 108q-124 106 -162 279l156 94
q44 -155 114.5 -232t192.5 -77q124 0 194 82q56 68 56 170q0 88 -65 149.5t-206 128.5q-84 38 -134.5 69t-106.5 79q-107 95 -107 251t105 261q104 104 247 104q138 0 226 -57t147 -172zM565 1561h-53l-313 335h176l164 -174l163 174h177z" />
    <glyph glyph-name="scaron" unicode="&#x161;" horiz-adv-x="944" 
d="M483 1049q187 0 299 -158l-116 -100q-94 102 -189 102q-55 0 -90 -35.5t-35 -95.5q0 -37 26 -66.5t68.5 -50.5t93.5 -41.5t102.5 -46t94 -56.5t68.5 -79.5t26 -110.5q0 -153 -91.5 -240t-250.5 -87q-140 0 -239 76.5t-146 201.5l146 80q83 -203 239 -203q166 0 166 162
q0 90 -168 150q-39 15 -60 23.5t-59 26.5t-59.5 33t-49.5 40t-42.5 51t-25.5 62t-11 77q0 124 84 204.5t219 80.5zM508 1159h-53l-314 336h176l164 -174l164 174h176z" />
    <glyph glyph-name="Ydieresis" unicode="&#x178;" horiz-adv-x="1036" 
d="M428 0v618l-420 816h199l311 -635l311 635h199l-420 -816v-618h-180zM348 1851q51 0 84 -33t33 -83t-33 -82.5t-84 -32.5q-48 0 -81.5 33t-33.5 82t33.5 82.5t81.5 33.5zM688 1851q51 0 84 -33t33 -83t-33 -82.5t-84 -32.5q-48 0 -81.5 33t-33.5 82t33.5 82.5t81.5 33.5z
" />
    <glyph glyph-name="Zcaron" unicode="&#x17d;" horiz-adv-x="1136" 
d="M760 1262h-643v172h899v-86l-668 -1176h688v-172h-944v86zM590 1561h-53l-314 335h176l164 -174l164 174h176z" />
    <glyph glyph-name="zcaron" unicode="&#x17e;" horiz-adv-x="933" 
d="M590 877h-461v155h692v-74l-489 -802h508v-156h-738v74zM500 1159h-54l-313 336h176l164 -174l164 174h176z" />
    <glyph glyph-name="florin" unicode="&#x192;" horiz-adv-x="978" 
d="M383 877h-182l28 155h183l14 68q38 181 137.5 265.5t263.5 84.5q86 0 142 -33l-64 -151q-51 28 -110 28q-84 0 -130.5 -46.5t-66.5 -147.5l-14 -68h233l-29 -155h-233l-186 -961q-68 -350 -402 -350q-85 0 -141 33l63 151q53 -29 111 -29q84 0 130 47t67 148z" />
    <glyph glyph-name="circumflex" unicode="&#x2c6;" horiz-adv-x="798" 
d="M236 1159h-177l314 336h53l313 -336h-176l-164 174z" />
    <glyph glyph-name="caron" unicode="&#x2c7;" horiz-adv-x="798" 
d="M426 1159h-53l-314 336h177l163 -174l164 174h176z" />
    <glyph glyph-name="breve" unicode="&#x2d8;" horiz-adv-x="512" 
d="M338 1434h137q0 -94 -64.5 -159t-162.5 -65q-96 0 -162 65t-66 159h138q0 -41 25.5 -67t64.5 -26q41 0 65.5 25.5t24.5 67.5z" />
    <glyph glyph-name="dotaccent" unicode="&#x2d9;" horiz-adv-x="552" 
d="M147 1319q0 55 37.5 93t91.5 38q55 0 92.5 -37.5t37.5 -93.5q0 -54 -37.5 -90.5t-92.5 -36.5q-54 0 -91.5 36.5t-37.5 90.5z" />
    <glyph glyph-name="ring" unicode="&#x2da;" horiz-adv-x="479" 
d="M37 1337q0 86 58.5 145.5t144.5 59.5q87 0 144.5 -59t57.5 -146q0 -85 -57 -140.5t-145 -55.5q-87 0 -145 56t-58 140zM152 1339q-5 -55 41.5 -78t93 0t41.5 78q5 58 -41.5 82t-93 0t-41.5 -82z" />
    <glyph glyph-name="ogonek" unicode="&#x2db;" horiz-adv-x="438" 
d="M143 -123h127q-114 -102 -114 -164q0 -61 61 -61q31 0 53.5 17.5t59.5 66.5l88 -72q-52 -79 -101 -112t-120 -33q-80 0 -128.5 46t-48.5 124q0 100 123 188z" />
    <glyph glyph-name="tilde" unicode="&#x2dc;" horiz-adv-x="796" 
d="M137 1200l-100 78q38 71 96 113.5t123 42.5q73 0 147 -41t121 -41q77 0 135 73l101 -79q-38 -69 -96.5 -111.5t-122.5 -42.5q-74 0 -148 41t-121 41q-76 0 -135 -74z" />
    <glyph glyph-name="hungarumlaut" unicode="&#x2dd;" horiz-adv-x="833" 
d="M184 1147h-139l139 295h248zM555 1147h-139l139 295h248z" />
    <glyph glyph-name="uni2206" unicode="&#x394;" horiz-adv-x="1368" 
d="M1255 0h-1142v41l491 1393h160l491 -1393v-41zM1040 156l-356 1030l-356 -1030h712z" />
    <glyph glyph-name="uni2206" unicode="&#x2206;" horiz-adv-x="1368" 
d="M1255 0h-1142v41l491 1393h160l491 -1393v-41zM1040 156l-356 1030l-356 -1030h712z" />
    <glyph glyph-name="uni2126" unicode="&#x3a9;" horiz-adv-x="1396" 
d="M604 0h-450v156h264l-62 114q-34 67 -98 271q-61 195 -61 360q0 244 133 395q136 154 368 154q234 0 367 -154q135 -150 135 -395q0 -164 -55 -350q-54 -184 -111 -291l-55 -104h264v-156h-450v47l24 49q4 9 11.5 26t19 46t22.5 55q47 116 70 195q31 99 55 229
q25 141 25 254q0 184 -85 288.5t-237 104.5t-236.5 -104.5t-84.5 -288.5q0 -195 57 -401q61 -222 115 -332l55 -121v-47z" />
    <glyph glyph-name="uni2126" unicode="&#x2126;" horiz-adv-x="1396" 
d="M604 0h-450v156h264l-62 114q-34 67 -98 271q-61 195 -61 360q0 244 133 395q136 154 368 154q234 0 367 -154q135 -150 135 -395q0 -164 -55 -350q-54 -184 -111 -291l-55 -104h264v-156h-450v47l24 49q4 9 11.5 26t19 46t22.5 55q47 116 70 195q31 99 55 229
q25 141 25 254q0 184 -85 288.5t-237 104.5t-236.5 -104.5t-84.5 -288.5q0 -195 57 -401q61 -222 115 -332l55 -121v-47z" />
    <glyph glyph-name="pi" unicode="&#x3c0;" horiz-adv-x="1239" 
d="M293 877h-180v155h1011v-155h-180v-877h-172v877h-307v-877h-172v877z" />
    <glyph glyph-name="uni2000" unicode="&#x2000;" horiz-adv-x="970" 
 />
    <glyph glyph-name="uni2001" unicode="&#x2001;" horiz-adv-x="1943" 
 />
    <glyph glyph-name="uni2002" unicode="&#x2002;" horiz-adv-x="970" 
 />
    <glyph glyph-name="uni2003" unicode="&#x2003;" horiz-adv-x="1943" 
 />
    <glyph glyph-name="uni2004" unicode="&#x2004;" horiz-adv-x="647" 
 />
    <glyph glyph-name="uni2005" unicode="&#x2005;" horiz-adv-x="485" 
 />
    <glyph glyph-name="uni2006" unicode="&#x2006;" horiz-adv-x="323" 
 />
    <glyph glyph-name="uni2007" unicode="&#x2007;" horiz-adv-x="323" 
 />
    <glyph glyph-name="uni2008" unicode="&#x2008;" horiz-adv-x="241" 
 />
    <glyph glyph-name="uni2009" unicode="&#x2009;" horiz-adv-x="387" 
 />
    <glyph glyph-name="uni200A" unicode="&#x200a;" horiz-adv-x="106" 
 />
    <glyph glyph-name="uni2010" unicode="&#x2010;" horiz-adv-x="985" 
d="M840 573h-695v152h695v-152z" />
    <glyph glyph-name="uni2011" unicode="&#x2011;" horiz-adv-x="985" 
d="M840 573h-695v152h695v-152z" />
    <glyph glyph-name="endash" unicode="&#x2013;" horiz-adv-x="1148" 
d="M1004 573h-859v152h859v-152z" />
    <glyph glyph-name="emdash" unicode="&#x2014;" horiz-adv-x="1554" 
d="M1409 573h-1264v152h1264v-152z" />
    <glyph glyph-name="quoteleft" unicode="&#x2018;" horiz-adv-x="612" 
d="M119 1450h250l141 -420h-131z" />
    <glyph glyph-name="quoteright" unicode="&#x2019;" horiz-adv-x="612" 
d="M233 1030h-131l142 420h250z" />
    <glyph glyph-name="quotesinglbase" unicode="&#x201a;" horiz-adv-x="612" 
d="M233 -29h-131l142 420h250z" />
    <glyph glyph-name="quotedblleft" unicode="&#x201c;" horiz-adv-x="968" 
d="M475 1450h250l141 -420h-131zM119 1450h250l141 -420h-131z" />
    <glyph glyph-name="quotedblright" unicode="&#x201d;" horiz-adv-x="968" 
d="M233 1030h-131l142 420h250zM590 1030h-131l141 420h250z" />
    <glyph glyph-name="quotedblbase" unicode="&#x201e;" horiz-adv-x="968" 
d="M233 -29h-131l142 420h250zM590 -29h-131l141 420h250z" />
    <glyph glyph-name="dagger" unicode="&#x2020;" horiz-adv-x="942" 
d="M389 868h-266v164h266v504h164v-504h266v-164h-266v-970h-164v970z" />
    <glyph glyph-name="daggerdbl" unicode="&#x2021;" horiz-adv-x="942" 
d="M389 868h-266v164h266v504h164v-504h266v-164h-266v-303h266v-164h-266v-503h-164v503h-266v164h266v303z" />
    <glyph glyph-name="bullet" unicode="&#x2022;" horiz-adv-x="663" 
d="M219 563q-44 47 -44 113t44 110q47 47 113 47t110 -47q47 -44 47 -110t-47 -113q-44 -44 -110 -44t-113 44z" />
    <glyph glyph-name="ellipsis" unicode="&#x2026;" horiz-adv-x="1712" 
d="M184 121q0 54 37 91.5t92 37.5q54 0 91.5 -37.5t37.5 -91.5q0 -55 -37.5 -92t-91.5 -37q-55 0 -92 37t-37 92zM727 121q0 54 37 91.5t92 37.5q54 0 91.5 -37.5t37.5 -91.5q0 -55 -37.5 -92t-91.5 -37q-56 0 -92.5 37t-36.5 92zM1270 121q0 54 37 91.5t92 37.5
q54 0 91.5 -37.5t37.5 -91.5q0 -55 -37.5 -92t-91.5 -37q-55 0 -92 37t-37 92z" />
    <glyph glyph-name="uni202F" unicode="&#x202f;" horiz-adv-x="387" 
 />
    <glyph glyph-name="perthousand" unicode="&#x2030;" horiz-adv-x="2502" 
d="M213 891q-94 94 -94 231q0 138 94 232q96 96 233 96q138 0 234 -96q94 -94 94 -232q0 -137 -94 -231t-234 -94q-139 0 -233 94zM315 1253q-47 -51 -47 -131t47 -131q48 -51 131 -51q84 0 129 51q49 51 49 131t-49 131q-48 54 -129 54q-80 0 -131 -54zM1044 78
q-94 94 -94 231q0 138 94 232q96 96 234 96q137 0 233 -96q95 -95 95 -232q0 -136 -95 -231q-94 -94 -233 -94q-140 0 -234 94zM1147 440q-47 -51 -47 -131t47 -131q48 -51 131 -51q84 0 129 51q49 51 49 131t-49 131q-48 54 -129 54q-80 0 -131 -54zM1823 78
q-94 94 -94 231q0 138 94 232q96 96 233 96q138 0 234 -96q94 -94 94 -232q0 -137 -94 -231t-234 -94q-139 0 -233 94zM1925 440q-47 -51 -47 -131t47 -131q48 -51 131 -51q84 0 129 51q49 51 49 131t-49 131q-48 54 -129 54q-80 0 -131 -54zM260 23l1102 1470l102 -80
l-1102 -1472z" />
    <glyph glyph-name="guilsinglleft" unicode="&#x2039;" horiz-adv-x="780" 
d="M666 164l-568 407v127l568 408v-184l-400 -287l400 -287v-184z" />
    <glyph glyph-name="guilsinglright" unicode="&#x203a;" horiz-adv-x="780" 
d="M115 1106l567 -408v-127l-567 -407v184l399 287l-399 287v184z" />
    <glyph glyph-name="fraction" unicode="&#x2044;" horiz-adv-x="1245" 
d="M20 23l1102 1470l103 -80l-1102 -1472z" />
    <glyph glyph-name="uni205F" unicode="&#x205f;" horiz-adv-x="485" 
 />
    <glyph glyph-name="uni2070" unicode="&#x2070;" horiz-adv-x="806" 
d="M176 1329q82 113 227 113q146 0 228 -113q82 -110 82 -305q0 -194 -82 -307q-83 -111 -228 -111t-227 111q-82 113 -82 307q0 195 82 305zM528 1243q-46 76 -125 76q-78 0 -127 -76q-47 -77 -47 -219t47 -219q49 -76 127 -76q79 0 125 76q50 77 50 219t-50 219z" />
    <glyph glyph-name="uni2074" unicode="&#x2074;" horiz-adv-x="696" 
d="M543 614h-129v158h-348v53l329 609h148v-539h96v-123h-96v-158zM414 1243l-181 -348h181v348z" />
    <glyph glyph-name="uni2075" unicode="&#x2075;" horiz-adv-x="696" 
d="M98 834l127 20q12 -59 46.5 -92t88.5 -33q67 0 104.5 42t37.5 112q0 73 -37.5 116t-104.5 43q-89 0 -143 -75l-102 22l45 445h426v-123h-314l-26 -201q65 47 139 47q116 0 184 -74.5t68 -199.5q0 -124 -77 -200.5t-200 -76.5q-105 0 -177.5 62.5t-84.5 165.5z" />
    <glyph glyph-name="uni2076" unicode="&#x2076;" horiz-adv-x="751" 
d="M408 1145q116 0 181.5 -74t65.5 -197q0 -118 -75.5 -193t-196.5 -75q-123 0 -200 75.5t-77 192.5q0 87 44 164l231 404h143l-178 -312q21 15 62 15zM242 874q0 -63 40 -104t101 -41q60 0 98.5 41t38.5 104q0 67 -37.5 107.5t-99.5 40.5t-101.5 -40.5t-39.5 -107.5z" />
    <glyph glyph-name="uni2077" unicode="&#x2077;" horiz-adv-x="622" 
d="M586 1382l-316 -768h-135l285 697h-326v123h492v-52z" />
    <glyph glyph-name="uni2078" unicode="&#x2078;" horiz-adv-x="724" 
d="M600 1223q0 -49 -27 -95t-69 -71q123 -61 123 -197q0 -116 -73.5 -185t-191.5 -69t-191 69t-73 185q0 136 123 197q-42 25 -69 71t-27 95q0 95 66 157t171 62t171.5 -62t66.5 -157zM457 954q-35 37 -94.5 37t-94.5 -37t-35 -94t35 -94t94.5 -37t94.5 37t35 94t-35 94z
M444 1303q-31 32 -82 32t-83 -32q-31 -31 -31 -80.5t31 -81.5q32 -31 83 -31t82 31q32 32 32 81.5t-32 80.5z" />
    <glyph glyph-name="uni2079" unicode="&#x2079;" horiz-adv-x="751" 
d="M344 903q-116 0 -182 74t-66 197q0 118 76 193t197 75q122 0 199 -75t77 -193q0 -88 -43 -164l-231 -404h-144l179 312q-21 -15 -62 -15zM510 1174q0 63 -40 104t-101 41q-60 0 -99 -41t-39 -104q0 -67 38 -107.5t100 -40.5t101.5 40.5t39.5 107.5z" />
    <glyph glyph-name="Euro" unicode="&#x20ac;" horiz-adv-x="1286" 
d="M250 793h-184l81 163h117q41 235 180.5 364.5t352.5 129.5q278 0 403 -233l-145 -80q-91 149 -258 149q-296 0 -361 -330h486l-82 -163h-418v-152h500l-82 -164h-404q65 -330 361 -330q167 0 258 150l145 -80q-125 -233 -403 -233q-213 0 -352.5 129t-180.5 364h-198
l81 164h103v152z" />
    <glyph glyph-name="trademark" unicode="&#x2122;" horiz-adv-x="1683" 
d="M272 1311h-215v123h576v-123h-215v-697h-146v697zM782 614v820h152l215 -539l215 539h152v-820h-146v519l-178 -443h-86l-178 443v-519h-146z" />
    <glyph glyph-name="partialdiff" unicode="&#x2202;" horiz-adv-x="1230" 
d="M98 432q0 261 162 438q164 179 418 179q165 0 248 -103q-17 163 -97 255.5t-202 92.5q-166 0 -242 -172l-168 43q52 132 161 208.5t255 76.5q235 0 353 -186.5t118 -532.5q0 -112 -20.5 -217t-66 -202t-112 -169.5t-165.5 -115.5t-220 -43q-189 0 -305 125
q-117 126 -117 323zM662 893q-174 0 -281 -143q-107 -140 -107 -322q0 -130 69.5 -209.5t186.5 -79.5q174 0 279 135q104 137 104 332q0 135 -65 211t-186 76z" />
    <glyph glyph-name="product" unicode="&#x220f;" horiz-adv-x="1130" 
d="M360 0h-172v1434h754v-1434h-172v1278h-410v-1278z" />
    <glyph glyph-name="summation" unicode="&#x2211;" horiz-adv-x="1126" 
d="M993 1278h-614l346 -541v-41l-346 -540h614v-156h-874v41l434 676l-434 676v41h874v-156z" />
    <glyph glyph-name="minus" unicode="&#x2212;" horiz-adv-x="1167" 
d="M1038 573h-901v152h901v-152z" />
    <glyph glyph-name="radical" unicode="&#x221a;" horiz-adv-x="1171" 
d="M608 270l348 1180h164l-444 -1450h-135l-209 641h-213v156h313z" />
    <glyph glyph-name="infinity" unicode="&#x221e;" horiz-adv-x="1802" 
d="M1307 344q-109 0 -218.5 59.5t-187.5 167.5q-78 -108 -187 -167.5t-218 -59.5q-175 0 -276 106t-101 285t101 285t276 106q109 0 218 -59.5t187 -167.5q78 108 187.5 167.5t218.5 59.5q175 0 275.5 -106t100.5 -285t-100.5 -285t-275.5 -106zM526 500q75 0 155 63
t134 172q-54 109 -134 172.5t-155 63.5q-106 0 -168.5 -63t-62.5 -173t62.5 -172.5t168.5 -62.5zM1276 500q106 0 168.5 62.5t62.5 172.5t-62.5 173t-168.5 63q-75 0 -155 -63.5t-134 -172.5q54 -109 134 -172t155 -63z" />
    <glyph glyph-name="integral" unicode="&#x222b;" horiz-adv-x="978" 
d="M197 -84l229 1184q68 350 401 350q86 0 142 -33l-64 -151q-51 28 -110 28q-84 0 -130.5 -46.5t-66.5 -147.5l-229 -1184q-68 -350 -402 -350q-85 0 -141 33l63 151q53 -29 111 -29q84 0 130 47t67 148z" />
    <glyph glyph-name="approxequal" unicode="&#x2248;" horiz-adv-x="1236" 
d="M240 344l-101 102q44 85 116.5 134t154.5 49q91 0 208 -51q119 -52 189 -52q113 0 190 92l101 -104q-44 -85 -115.5 -132.5t-155.5 -47.5q-92 0 -209 51q-114 51 -188 51q-113 0 -190 -92zM240 754l-101 102q44 85 116.5 133.5t154.5 48.5q91 0 208 -51t189 -51
q113 0 190 92l101 -104q-45 -85 -116 -133t-155 -48q-90 0 -209 52q-114 51 -188 51q-113 0 -190 -92z" />
    <glyph glyph-name="notequal" unicode="&#x2260;" horiz-adv-x="1144" 
d="M539 729h-375v152h461l120 209l132 -76l-76 -133h180v-152h-270l-105 -188h375v-152h-461l-121 -209l-131 76l76 133h-180v152h270z" />
    <glyph glyph-name="lessequal" unicode="&#x2264;" horiz-adv-x="1140" 
d="M1014 0h-901v152h901v-152zM922 354l-715 379v180l715 379v-176l-547 -293l547 -293v-176z" />
    <glyph glyph-name="greaterequal" unicode="&#x2265;" horiz-adv-x="1140" 
d="M127 152h901v-152h-901v152zM219 1292l715 -379v-180l-715 -379v176l547 293l-547 293v176z" />
    <glyph glyph-name="lozenge" unicode="&#x25ca;" horiz-adv-x="1183" 
d="M676 0h-168l-369 717l369 717h168l368 -717zM311 717l281 -557l280 557l-280 557z" />
    <glyph glyph-name="NULL" horiz-adv-x="0" 
 />
    <glyph glyph-name="CR.001" horiz-adv-x="681" 
 />
    <glyph glyph-name="CR" horiz-adv-x="548" 
 />
    <glyph glyph-name="apple" horiz-adv-x="1609" 
d="M1411 1264v-1219q0 -19 -13 -32t-32 -13q-8 0 -14 2l-547 158l-547 -158q-6 -2 -14 -2q-19 0 -32 13t-13 32v1219q0 37 32 45l553 159q20 8 41 0l553 -159q33 -9 33 -45zM760 750v620l-471 -137q12 -191 145 -330q135 -138 326 -153zM1321 1233l-471 137v-620
q192 15 324 153q135 138 147 330zM287 948v-844l473 138v417q-149 12 -274 89t-199 200zM850 242l473 -138v844q-75 -124 -200 -200.5t-273 -88.5v-417z" />
    <glyph glyph-name="No" horiz-adv-x="2568" 
d="M2410 0h-897v156h897v-156zM1602 541q-136 157 -136 377q0 217 136 374q140 158 360 158q221 0 358 -158q138 -156 138 -374q0 -221 -138 -377q-135 -156 -358 -156q-222 0 -360 156zM1726 1182q-84 -113 -84 -264t84 -267q85 -110 236 -110t233 110q86 115 86 267
t-86 264q-81 112 -233 112t-236 -112zM1057 313v1121h180v-1434h-211l-647 1116v-1116h-180v1434h211z" />
    <glyph glyph-name="zero.tn" 
d="M199 1253q129 197 374 197q246 0 375 -197q129 -193 129 -536t-129 -539q-129 -194 -375 -194q-245 0 -374 194q-129 196 -129 539t129 536zM815 1137q-82 149 -242 149q-159 0 -241 -149t-82 -420t82 -420q82 -150 241 -150t242 150q82 149 82 420t-82 420z" />
    <glyph glyph-name="one.tn" 
d="M279 1210l368 224h64v-1434h-168v1176l-264 -154v188z" />
    <glyph glyph-name="two.tn" 
d="M1006 0h-867v80l547 700q67 85 92 144.5t25 128.5q0 99 -53 164q-57 69 -172 69q-99 0 -162 -67t-74 -179l-172 33q9 158 125 268q118 109 283 109q201 0 311 -125q90 -104 90 -272q0 -161 -115 -312l-446 -577h588v-164z" />
    <glyph glyph-name="three.tn" 
d="M119 393l172 23q41 -269 284 -269q130 0 208.5 81.5t78.5 222.5t-78.5 222t-208.5 81q-71 0 -126 -27l-72 96l328 447h-519v164h779v-56l-365 -493q18 6 57 6q165 0 273 -123q108 -120 108 -317q0 -206 -129 -338q-129 -129 -334 -129q-182 0 -309 112q-129 114 -147 297
z" />
    <glyph glyph-name="four.tn" 
d="M889 0h-176v305h-623v72l606 1057h193v-965h178v-164h-178v-305zM713 1163l-389 -694h389v694z" />
    <glyph glyph-name="five.tn" 
d="M129 375l174 33q13 -126 81.5 -193.5t178.5 -67.5q128 0 201.5 86.5t73.5 233.5t-73.5 233t-201.5 86q-169 0 -289 -159l-108 24l78 783h684v-164h-535l-53 -416q93 96 235 96q205 0 322 -135q117 -132 117 -348q0 -215 -123 -350q-124 -133 -328 -133q-182 0 -298 102
t-136 289z" />
    <glyph glyph-name="six.tn" 
d="M573 918q197 0 324 -136q129 -132 129 -331t-129 -334q-127 -133 -324 -133q-195 0 -325 133q-127 136 -127 334q0 137 74 264l423 735h197l-311 -547q30 15 69 15zM301 451q0 -131 77 -217.5t195 -86.5t195.5 86.5t77.5 217.5q0 136 -75.5 219.5t-197.5 83.5t-197 -83.5
t-75 -219.5z" />
    <glyph glyph-name="seven.tn" 
d="M979 1358l-557 -1358h-180l526 1270h-606v164h817v-76z" />
    <glyph glyph-name="eight.tn" 
d="M967 1067q0 -92 -45 -174.5t-117 -120.5q100 -45 156.5 -139t56.5 -221q0 -197 -129 -314q-129 -114 -316 -114q-186 0 -315 114q-129 117 -129 314q0 127 56.5 221t156.5 139q-72 38 -117 120.5t-45 174.5q0 161 111 272t282 111q172 0 283 -111t111 -272zM764 604
q-75 72 -191 72q-115 0 -190 -72q-74 -71 -74 -192q0 -122 74 -193q75 -72 190 -72q116 0 191 72q74 71 74 193q0 121 -74 192zM733 1231q-57 63 -160 63q-101 0 -161 -63q-60 -66 -60 -164t60 -164q60 -63 161 -63q103 0 160 63q62 65 62 164t-62 164z" />
    <glyph glyph-name="nine.tn" 
d="M573 516q-195 0 -325 133q-127 136 -127 334q0 199 127 332q129 135 325 135q198 0 324 -135q129 -132 129 -332q0 -137 -74 -264l-424 -735h-196l311 546q-28 -14 -70 -14zM846 983q0 131 -77.5 217t-195.5 86t-195 -86t-77 -217q0 -136 75 -219.5t197 -83.5t197.5 83.5
t75.5 219.5z" />
    </font>
</defs>
</svg>
